<?xml version="1.0" encoding="utf-8"?>
<!-- Generator: Adobe Illustrator 24.3.0, SVG Export Plug-In . SVG Version: 6.00 Build 0)  -->
<svg version="1.1" id="Layer_1" xmlns="http://www.w3.org/2000/svg" xmlns:xlink="http://www.w3.org/1999/xlink" x="0px" y="0px"
	 viewBox="0 0 1920 973" style="enable-background:new 0 0 1920 973;" xml:space="preserve">
<style type="text/css">
	.st0{clip-path:url(#SVGID_2_);fill:#FFFFFF;}
	.st1{fill:#FFFFFF;}
	.st2{fill:none;stroke:#262626;stroke-width:0.6667;stroke-linecap:square;stroke-linejoin:round;stroke-miterlimit:10;}
	.st3{fill:#262626;}
	.st4{font-family:'Helvetica';}
	.st5{font-size:11.3333px;}
	.st6{font-size:12.4667px;}
	.st7{fill:none;stroke:#FF0000;stroke-width:0.6667;stroke-linejoin:round;stroke-miterlimit:10;}
	.st8{fill:none;stroke:#00FF00;stroke-width:0.6667;stroke-linejoin:round;stroke-miterlimit:10;}
	.st9{fill:none;stroke:#0000FF;stroke-width:0.6667;stroke-linejoin:round;stroke-miterlimit:10;}
	.st10{font-size:10.6667px;}
	.st11{fill:none;stroke:#262626;stroke-width:0.6667;stroke-miterlimit:10;}
	.st12{font-family:'Helvetica-Bold';}
	.st13{fill:none;stroke:#FF00FF;stroke-width:0.6667;stroke-linejoin:round;stroke-miterlimit:10;}
	.st14{fill:#FF0000;}
	.st15{fill:#0000FF;}
	.st16{fill:none;stroke:#00FFFF;stroke-width:0.6667;stroke-linejoin:round;stroke-miterlimit:10;}
	.st17{fill:#00FF00;}
	.st18{fill:none;stroke:#0000FF;stroke-width:0.6667;stroke-miterlimit:10;}
	.st19{fill:none;stroke:#00FF00;stroke-width:0.6667;stroke-miterlimit:10;}
</style>
<g>
	<g>
		<g>
			<defs>
				<rect id="SVGID_1_" y="0" width="1920" height="973"/>
			</defs>
			<clipPath id="SVGID_2_">
				<use xlink:href="#SVGID_1_"  style="overflow:visible;"/>
			</clipPath>
			<rect y="0" class="st0" width="1920" height="973"/>
		</g>
	</g>
	<g>
		<rect y="0" class="st1" width="1920" height="973"/>
		<path class="st1" d="M250,169h1488V75H250V169z"/>
	</g>
	<g>
		<line class="st2" x1="250" y1="169" x2="1738" y2="169"/>
		<line class="st2" x1="250" y1="169" x2="250" y2="154.1"/>
		<line class="st2" x1="436" y1="169" x2="436" y2="154.1"/>
		<line class="st2" x1="622" y1="169" x2="622" y2="154.1"/>
		<line class="st2" x1="808" y1="169" x2="808" y2="154.1"/>
		<line class="st2" x1="994" y1="169" x2="994" y2="154.1"/>
		<line class="st2" x1="1180" y1="169" x2="1180" y2="154.1"/>
		<line class="st2" x1="1366" y1="169" x2="1366" y2="154.1"/>
		<line class="st2" x1="1552" y1="169" x2="1552" y2="154.1"/>
		<line class="st2" x1="1738" y1="169" x2="1738" y2="154.1"/>
	</g>
	<g transform="translate(250,171.9333)">
		<text transform="matrix(1 0 0 1 -3.5 9)" class="st3 st4 st5">0</text>
	</g>
	<g transform="translate(436,171.9333)">
		<text transform="matrix(1 0 0 1 -6.5 9)" class="st3 st4 st5">20</text>
	</g>
	<g transform="translate(622,171.9333)">
		<text transform="matrix(1 0 0 1 -6.5 9)" class="st3 st4 st5">40</text>
	</g>
	<g transform="translate(808,171.9333)">
		<text transform="matrix(1 0 0 1 -6.5 9)" class="st3 st4 st5">60</text>
	</g>
	<g transform="translate(994,171.9333)">
		<text transform="matrix(1 0 0 1 -6.5 9)" class="st3 st4 st5">80</text>
	</g>
	<g transform="translate(1180,171.9333)">
		<text transform="matrix(1 0 0 1 -9.5 9)" class="st3 st4 st5">100</text>
	</g>
	<g transform="translate(1366,171.9333)">
		<text transform="matrix(1 0 0 1 -9.5 9)" class="st3 st4 st5">120</text>
	</g>
	<g transform="translate(1552,171.9333)">
		<text transform="matrix(1 0 0 1 -9.5 9)" class="st3 st4 st5">140</text>
	</g>
	<g transform="translate(1738,171.9333)">
		<text transform="matrix(1 0 0 1 -9.5 9)" class="st3 st4 st5">160</text>
	</g>
	<g transform="translate(994.0007,184.2667)">
		<text transform="matrix(1 0 0 1 -40.5 10)" class="st3 st4 st6">Sample index</text>
	</g>
	<g>
		<line class="st2" x1="250" y1="169" x2="250" y2="75"/>
		<line class="st2" x1="250" y1="169" x2="264.9" y2="169"/>
		<line class="st2" x1="250" y1="145.5" x2="264.9" y2="145.5"/>
		<line class="st2" x1="250" y1="122" x2="264.9" y2="122"/>
		<line class="st2" x1="250" y1="98.5" x2="264.9" y2="98.5"/>
		<line class="st2" x1="250" y1="75" x2="264.9" y2="75"/>
	</g>
	<g transform="translate(247.0667,169)">
		<text transform="matrix(1 0 0 1 -11 3)" class="st3 st4 st5">-2</text>
	</g>
	<g transform="translate(247.0667,145.5)">
		<text transform="matrix(1 0 0 1 -11 3)" class="st3 st4 st5">-1</text>
	</g>
	<g transform="translate(247.0667,122)">
		<text transform="matrix(1 0 0 1 -7 3)" class="st3 st4 st5">0</text>
	</g>
	<g transform="translate(247.0667,98.5)">
		<text transform="matrix(1 0 0 1 -7 3)" class="st3 st4 st5">1</text>
	</g>
	<g transform="translate(247.0667,75)">
		<text transform="matrix(1 0 0 1 -7 3)" class="st3 st4 st5">2</text>
	</g>
	<g transform="translate(234.0667,122) rotate(-90)">
		<text transform="matrix(1 0 0 1 -37.5001 -3)" class="st3 st4 st6">Acceleration</text>
	</g>
	<g>
		<path class="st7" d="M259.3,101.9l9.3,36.4l9.3,0.8l9.3-0.5l9.3,1.1l9.3-0.3l9.3,5.2l9.3-7.1l9.3,0.4l9.3,0.5l9.3-0.6l9.3-0.5
			l9.3,1.3l9.3-2.4l9.3,0.2l9.3,0.8l9.3-1.3l9.3,0l9.3-0.2l9.3-1.1l9.3-0.2l9.3,0.6l9.3-1.4l9.3,1.3l9.3,2.2l9.3-62l9.3,94h9.3
			l9.3-94h9.3l9.3,94l9.3-69.4l9.3-24.6l9.3,94l9.3-11.1l9.3-82.9l9.3,94l9.3-1.5l9.3-29.5l9.3,2l9.3,2.2l9.3,0.7l9.3-2.8l9.3,1.1
			l9.3,1.2l9.3,0.9l9.3-0.9l9.3,0.3l9.3,7.2l9.3,4.3l9.3-9.1l9.3-9.8l9.3-9.1l9.3-8.2l9.3-7.1l9.3,17.9l9.3,25.4l9.3-7.8l9.3,5.5
			l9.3-0.4l9.3-7.2l9.3-1.8l9.3-9.8l9.3-6.2l9.3-10.3l9.3,4.6l9.3,16.5l9.3,8.4l9.3-1.1l9.3,7.1l9.3-0.3l9.3-1.5l9.3-8l9.3-6
			l9.3-6.9l9.3-13.5l9.3,5.8l9.3,7.7l9.3,17.1l9.3,4.1l9.3-4.9l9.3-0.1l9.3,8.6l9.3-1.8l9.3-9l9.3-7.8l9.3-8.3l9.3-3.1l9.3-3.6
			l9.3,2.5l9.3-3.4l9.3,3.1l9.3,0.9l9.3-0.3l9.3,0.5l9.3,0.4l9.3,0.1l9.3,1.5l9.3-1.5l9.3-0.1l9.3,0l9.3-0.9l9.3,0.9l9.3,0l9.3,0.5
			l9.3-15l9.3,25.8l9.3,34l9.3-75.1L1273,75l9.3,94l9.3-5.4l9.3-88.6l9.3,94h9.3l9.3-94h9.3l9.3,94l9.3-91.1l9.3-2.9l9.3,94
			l9.3-44.7l9.3-49.3l9.3,94h9.3l9.3-94l9.3,23.3l9.3,70.7l9.3-88.4l9.3-5.5l9.3,94l9.3-81l9.3-13l9.3,94l9.3-7.5l9.3-21.9l9.3-2.3
			l9.3,4.5l9.3,1.4l9.3-1h9.3l9.3-2.3l9.3,3.4l9.3-0.2l9.3-1.7l9.3,4l9.3,2.7l9.3-3l9.3-19.7l9.3,13.9l9.3,0.3l9.3,2.1l9.3-1.7
			l9.3-0.1l9.3-0.5l9.3,1.4l9.3-0.4"/>
		<path class="st8" d="M259.3,137.8l9.3,0.4l9.3-0.8l9.3-0.8l9.3,0.9l9.3-1.5l9.3-0.9l9.3,2.6l9.3,2.2l9.3-1.8l9.3,1.3l9.3,0.2
			l9.3,0l9.3,2.8l9.3-2.4l9.3,0.9l9.3-0.2l9.3,0.5l9.3-0.2l9.3,0.2l9.3,0.2l9.3,0.3l9.3,0.3l9.3-0.5l9.3,4.3l9.3-63.5l9.3-7.1h9.3
			l9.3,2.8L529,75h9.3h9.3h9.3h9.3h9.3h9.3h9.3l9.3,38.3l9.3,2l9.3-1l9.3,0.4l9.3,0.5l9.3,0.6l9.3-0.2l9.3-0.1l9.3,0.5l9.3,0
			l9.3,0.2l9.3,0.1l9.3,0.6l9.3,4.6l9.3,8.7l9.3,7.7l9.3,4.8l9.3-2.1l9.3-12.4l9.3-11.8l9.3-2.9l9.3-4.5l9.3,0.6l9.3,7.6l9.3,8.4
			l9.3,8l9.3,6l9.3,4.5l9.3-3.5l9.3-10.4l9.3-7.4l9.3-6.9l9.3-3.7l9.3,0.8l9.3,3.3l9.3,7.9l9.3,8.8l9.3,5.6l9.3,5.6l9.3-2.1l9.3-5.7
			l9.3-11.3l9.3-3.6l9.3-0.5l9.3-4.5l9.3-3.3l9.3,2.2l9.3,8.2l9.3,9.9l9.3,6l9.3,3.9l9.3,0.9l9.3,1.8l9.3-0.4l9.3,0l9.3,0.3l9.3-0.6
			l9.3,0.2l9.3,0.3l9.3-0.2l9.3,0.2l9.3-0.6h9.3l9.3,0.5l9.3-0.4l9.3,0.3l9.3,0l9.3-0.1l9.3-4.7l9.3-65.4h9.3h9.3l9.3,1.1l9.3-1.1
			h9.3l9.3,1.7l9.3-1.7h9.3h9.3h9.3h9.3h9.3h9.3h9.3h9.3l9.3,2.2l9.3-2.2h9.3l9.3,10.6l9.3-10.6h9.3h9.3h9.3h9.3h9.3h9.3h9.3
			l9.3,34.7l9.3,8.7l9.3,3.9h9.3l9.3,1.9l9.3-0.1l9.3,0.4l9.3,3.3l9.3-1.7l9.3,0.5l9.3,0.1l9.3-1.2l9.3-0.3l9.3-0.3l9.3,9.9l9.3-3.6
			l9.3-0.4l9.3,0.3l9.3,1.9l9.3,0.2l9.3-1l9.3-1.4l9.3,0.9"/>
		<path class="st9" d="M259.3,115.2l9.3,0.7l9.3,0.3l9.3-1.4l9.3,2l9.3,0.6l9.3,0.4l9.3,4.4l9.3-0.2l9.3,3.6l9.3,0.6l9.3-1.5
			l9.3-0.4l9.3,2.2l9.3-0.2l9.3-2.1l9.3,0.7l9.3-0.3l9.3,0.7l9.3-0.3l9.3,0.6l9.3-0.5l9.3,0.3l9.3-0.6l9.3-1.7l9.3,24.8l9.3-73
			l9.3,44.2l9.3-7.4l9.3,21l9.3-53.5l9.3,27.1l9.3,62.7l9.3-94l9.3,28.2l9.3,38.3l9.3-66.5l9.3,29.4l9.3,7.8l9.3-4.6l9.3,0.9
			l9.3,2.1l9.3,0l9.3-1.1l9.3,0.8l9.3,0.6l9.3-0.6l9.3-0.7l9.3-0.8l9.3,0.7l9.3,3.6l9.3,3.6l9.3,5.5l9.3,5.1l9.3-1.5l9.3-7.3
			l9.3-9.3l9.3-1.1l9.3-1.7l9.3-2.4l9.3,3.7l9.3,4.1l9.3,4.1l9.3,4.7l9.3,2.2l9.3-0.9l9.3-9.2l9.3-2.1l9.3-0.7l9.3-0.5l9.3-0.4
			l9.3-0.9l9.3,4.4l9.3,2.5l9.3,3.4l9.3,3.3l9.3,0l9.3-6l9.3-4.9l9.3,0.4l9.3,0l9.3-0.2l9.3-2l9.3-1.7l9.3,1.8l9.3,7l9.3,2.9
			l9.3,3.2l9.3-3l9.3,0.8l9.3,0.4l9.3,1.3l9.3-0.3l9.3,0.1l9.3,0.1l9.3,0.1l9.3,0l9.3,0.6l9.3-0.8l9.3-0.1l9.3,0.2l9.3-0.1l9.3-0.5
			l9.3,1.1l9.3,0.1l9.3,13.2l9.3-47.4l9.3-12.8l9.3,36.4l9.3,36.4l9.3-72.8l9.3,25.5l9.3,40.7l9.3-66.2l9.3,9.2l9.3,22.9l9.3,34.2
			l9.3-45.4l9.3,5.2l9.3,67.9l9.3-94l9.3,19.2l9.3,39.5l9.3-29.4l9.3-26.1l9.3,58.3l9.3-41.7l9.3-19.9l9.3,52l9.3,10.4l9.3-62.4
			l9.3,39.8l9.3,54.2l9.3-94l9.3,22.7l9.3,13.7l9.3-0.3l9.3-3.5l9.3,3.3l9.3-1.3l9.3-0.8l9.3,2.5l9.3-0.5l9.3-0.9l9.3,0.1l9.3,1.3
			l9.3-1.4l9.3-4.3l9.3,0.8l9.3,2.7l9.3,1l9.3-1.4l9.3,2.8l9.3-0.1l9.3-1.4l9.3-0.5l9.3,0.2"/>
	</g>
	<g>
		<path class="st1" d="M1727,123V82h-82v41H1727z"/>
	</g>
	<g transform="translate(1692,90)">
		<text transform="matrix(1 0 0 1 0 3)" class="st4 st10">X axis</text>
	</g>
	<g>
		<line class="st7" x1="1649" y1="90" x2="1689" y2="90"/>
	</g>
	<g transform="translate(1692,102.5)">
		<text transform="matrix(1 0 0 1 0 3)" class="st4 st10">Y axis</text>
	</g>
	<g>
		<line class="st8" x1="1649" y1="102.5" x2="1689" y2="102.5"/>
	</g>
	<g transform="translate(1692,115)">
		<text transform="matrix(1 0 0 1 0 3)" class="st4 st10">Z axis</text>
	</g>
	<g>
		<line class="st9" x1="1649" y1="115" x2="1689" y2="115"/>
		<path class="st11" d="M1645,123V82h82v41H1645z"/>
	</g>
	<g>
		<path class="st1" d="M250,308h1488v-94H250V308z"/>
	</g>
	<g>
		<line class="st2" x1="250" y1="308" x2="1738" y2="308"/>
		<line class="st2" x1="250" y1="308" x2="250" y2="293.1"/>
		<line class="st2" x1="436" y1="308" x2="436" y2="293.1"/>
		<line class="st2" x1="622" y1="308" x2="622" y2="293.1"/>
		<line class="st2" x1="808" y1="308" x2="808" y2="293.1"/>
		<line class="st2" x1="994" y1="308" x2="994" y2="293.1"/>
		<line class="st2" x1="1180" y1="308" x2="1180" y2="293.1"/>
		<line class="st2" x1="1366" y1="308" x2="1366" y2="293.1"/>
		<line class="st2" x1="1552" y1="308" x2="1552" y2="293.1"/>
		<line class="st2" x1="1738" y1="308" x2="1738" y2="293.1"/>
	</g>
	<g transform="translate(250,310.9333)">
		<text transform="matrix(1 0 0 1 -3.5 9)" class="st3 st4 st5">0</text>
	</g>
	<g transform="translate(436,310.9333)">
		<text transform="matrix(1 0 0 1 -6.5 9)" class="st3 st4 st5">20</text>
	</g>
	<g transform="translate(622,310.9333)">
		<text transform="matrix(1 0 0 1 -6.5 9)" class="st3 st4 st5">40</text>
	</g>
	<g transform="translate(808,310.9333)">
		<text transform="matrix(1 0 0 1 -6.5 9)" class="st3 st4 st5">60</text>
	</g>
	<g transform="translate(994,310.9333)">
		<text transform="matrix(1 0 0 1 -6.5 9)" class="st3 st4 st5">80</text>
	</g>
	<g transform="translate(1180,310.9333)">
		<text transform="matrix(1 0 0 1 -9.5 9)" class="st3 st4 st5">100</text>
	</g>
	<g transform="translate(1366,310.9333)">
		<text transform="matrix(1 0 0 1 -9.5 9)" class="st3 st4 st5">120</text>
	</g>
	<g transform="translate(1552,310.9333)">
		<text transform="matrix(1 0 0 1 -9.5 9)" class="st3 st4 st5">140</text>
	</g>
	<g transform="translate(1738,310.9333)">
		<text transform="matrix(1 0 0 1 -9.5 9)" class="st3 st4 st5">160</text>
	</g>
	<g transform="translate(994.0007,323.2667)">
		<text transform="matrix(1 0 0 1 -40.5 10)" class="st3 st4 st6">Sample index</text>
	</g>
	<g>
		<line class="st2" x1="250" y1="308" x2="250" y2="214"/>
		<line class="st2" x1="250" y1="308" x2="264.9" y2="308"/>
		<line class="st2" x1="250" y1="284.5" x2="264.9" y2="284.5"/>
		<line class="st2" x1="250" y1="261" x2="264.9" y2="261"/>
		<line class="st2" x1="250" y1="237.5" x2="264.9" y2="237.5"/>
		<line class="st2" x1="250" y1="214" x2="264.9" y2="214"/>
	</g>
	<g transform="translate(247.0667,308)">
		<text transform="matrix(1 0 0 1 -7 3)" class="st3 st4 st5">0</text>
	</g>
	<g transform="translate(247.0667,284.5)">
		<text transform="matrix(1 0 0 1 -7 3)" class="st3 st4 st5">1</text>
	</g>
	<g transform="translate(247.0667,261)">
		<text transform="matrix(1 0 0 1 -7 3)" class="st3 st4 st5">2</text>
	</g>
	<g transform="translate(247.0667,237.5)">
		<text transform="matrix(1 0 0 1 -7 3)" class="st3 st4 st5">3</text>
	</g>
	<g transform="translate(247.0667,214)">
		<text transform="matrix(1 0 0 1 -7 3)" class="st3 st4 st5">4</text>
	</g>
	<g transform="translate(238.0667,261) rotate(-90)">
		<text transform="matrix(1 0 0 1 -31.5001 -3)" class="st3 st4 st6">Magnitude</text>
	</g>
	<g transform="translate(994.0009,211.6625)">
		<text transform="matrix(1 0 0 1 -130 -3)" class="st12 st6">Simple Step Detection (Raw Magnitude)</text>
	</g>
	<g>
		<path class="st13" d="M259.3,281.6l9.3,2.6l9.3,0.1l9.3,0.5l9.3-0.8l9.3,1.3l9.3-3.6l9.3,4.4l9.3-1.9l9.3,0.7l9.3-0.6l9.3,0.4
			l9.3-0.8l9.3-0.9l9.3,1.8l9.3-0.9l9.3,0.8l9.3-0.3l9.3,0.2l9.3,0.5l9.3-0.1l9.3-0.5l9.3,0.5l9.3-0.1l9.3-4.6l9.3-38.9l9.3-14.5
			l9.3,14.9l9.3,1.2l9.3-2l9.3-11.7l9.3,24.6l9.3-27h9.3l9.3,19.3l9.3-7.2l9.3-12.1l9.3,31.9l9.3,29.6l9.3-4.4l9.3-1.1l9.3,0.6
			l9.3,2.5l9.3-1.5l9.3-0.6l9.3-0.3l9.3,0.5l9.3-0.6l9.3-6.6l9.3-3.5l9.3,10.2l9.3,8.3l9.3-0.1l9.3-5.4l9.3-0.3l9.3,12.4l9.3-25.2
			l9.3,5.7l9.3-6.8l9.3-0.6l9.3,9.8l9.3,3.8l9.3,6.2l9.3-1.4l9.3-4.8l9.3,4.3l9.3-0.8l9.3-6.6l9.3-0.1l9.3-7.4l9.3,0.3l9.3,1.7
			l9.3,9.6l9.3,3.1l9.3,0.7l9.3-4.9l9.3,3.1l9.3,3l9.3-9.6l9.3-3.5l9.3,4.5l9.3-0.7l9.3-9.2l9.3,1.4l9.3,9.5l9.3,6.4l9.3,0.1l9.3-3
			l9.3-1.1l9.3-1.6l9.3,0.2l9.3,0.3l9.3-0.4l9.3,0.6l9.3-0.2l9.3-0.3l9.3,0.2l9.3-0.4l9.3,0.7l9.3,0l9.3-0.5l9.3,0.5l9.3-0.3
			l9.3,0.1l9.3,0l9.3-2.9l9.3-33.5l9.3-21.8l9.3,25.6l9.3-14.8l9.3-10.8l9.3,15.1l9.3-1.7l9.3-13.4l9.3,4.9l9.3,8.4l9.3-1.1l9.3-2.2
			l9.3,3.6l9.3-13.7h9.3l9.3,26.8l9.3-11.4l9.3-2.8l9.3-10.8l9.3,18.3l9.3,2l9.3-22.2l9.3,18.5l9.3-5.4l9.3-13.2l9.3,23l9.3-23h9.3
			l9.3,33.5l9.3,27.1l9.3,2.1l9.3-5.7l9.3,0.5l9.3,0.2l9.3-0.4l9.3,2.6l9.3-2.7l9.3-0.4l9.3,1.5l9.3-2.7l9.3-2.9l9.3,0.4l9.3,8
			l9.3-3l9.3,0.5l9.3-2.4l9.3,1.9l9.3,0l9.3,0.1l9.3-0.8l9.3,0.1"/>
		<path d="M510.4,237.8c2,0,3.7,1.6,3.7,3.7l0,0c0,2-1.6,3.7-3.7,3.7s-3.7-1.6-3.7-3.7C506.7,239.4,508.4,237.8,510.4,237.8z
			 M510.4,237.1c-2.4,0-4.3,1.9-4.3,4.3c0,2.4,1.9,4.3,4.3,4.3c2.4,0,4.3-1.9,4.3-4.3l0,0C514.7,239.1,512.8,237.1,510.4,237.1z"/>
		<path d="M724.3,279.8c2,0,3.7,1.6,3.7,3.7l0,0c0,2-1.6,3.7-3.7,3.7s-3.7-1.6-3.7-3.7S722.3,279.8,724.3,279.8z M724.3,279.1
			c-2.4,0-4.3,1.9-4.3,4.3c0,2.4,1.9,4.3,4.3,4.3s4.3-1.9,4.3-4.3l0,0C728.6,281,726.7,279.1,724.3,279.1z"/>
		<path d="M733.6,288c2,0,3.7,1.6,3.7,3.7l0,0c0,2-1.6,3.7-3.7,3.7s-3.7-1.6-3.7-3.7S731.6,288,733.6,288z M733.6,287.4
			c-2.4,0-4.3,1.9-4.3,4.3c0,2.4,1.9,4.3,4.3,4.3s4.3-1.9,4.3-4.3l0,0C737.9,289.3,736,287.4,733.6,287.4z"/>
		<path d="M770.8,294.7c2,0,3.7,1.6,3.7,3.7l0,0c0,2-1.6,3.7-3.7,3.7s-3.7-1.6-3.7-3.7S768.8,294.7,770.8,294.7z M770.8,294
			c-2.4,0-4.3,1.9-4.3,4.3c0,2.4,1.9,4.3,4.3,4.3s4.3-1.9,4.3-4.3l0,0C775.1,296,773.2,294,770.8,294z"/>
		<path d="M789.4,275.2c2,0,3.7,1.6,3.7,3.7l0,0c0,2-1.6,3.7-3.7,3.7s-3.7-1.6-3.7-3.7S787.4,275.2,789.4,275.2z M789.4,274.5
			c-2.4,0-4.3,1.9-4.3,4.3c0,2.4,1.9,4.3,4.3,4.3s4.3-1.9,4.3-4.3l0,0C793.7,276.5,791.8,274.5,789.4,274.5z"/>
		<path d="M817.3,277.7c2,0,3.7,1.6,3.7,3.7l0,0c0,2-1.6,3.7-3.7,3.7s-3.7-1.6-3.7-3.7S815.3,277.7,817.3,277.7z M817.3,277
			c-2.4,0-4.3,1.9-4.3,4.3c0,2.4,1.9,4.3,4.3,4.3s4.3-1.9,4.3-4.3l0,0C821.6,279,819.7,277,817.3,277z"/>
		<path d="M835.9,287.7c2,0,3.7,1.6,3.7,3.7l0,0c0,2-1.6,3.7-3.7,3.7s-3.7-1.6-3.7-3.7S833.9,287.7,835.9,287.7z M835.9,287
			c-2.4,0-4.3,1.9-4.3,4.3c0,2.4,1.9,4.3,4.3,4.3s4.3-1.9,4.3-4.3l0,0C840.2,288.9,838.3,287,835.9,287z"/>
		<path d="M928.9,282.5c2,0,3.7,1.6,3.7,3.7l0,0c0,2-1.6,3.7-3.7,3.7s-3.7-1.6-3.7-3.7S926.9,282.5,928.9,282.5z M928.9,281.8
			c-2.4,0-4.3,1.9-4.3,4.3c0,2.4,1.9,4.3,4.3,4.3s4.3-1.9,4.3-4.3l0,0C933.2,283.7,931.3,281.8,928.9,281.8z"/>
		<path d="M1040.5,279.9c2,0,3.7,1.6,3.7,3.7l0,0c0,2-1.6,3.7-3.7,3.7s-3.7-1.6-3.7-3.7S1038.5,279.9,1040.5,279.9z M1040.5,279.2
			c-2.4,0-4.3,1.9-4.3,4.3c0,2.4,1.9,4.3,4.3,4.3s4.3-1.9,4.3-4.3l0,0C1044.8,281.2,1042.9,279.2,1040.5,279.2z"/>
		<path d="M1049.8,286.3c2,0,3.7,1.6,3.7,3.7l0,0c0,2-1.6,3.7-3.7,3.7s-3.7-1.6-3.7-3.7S1047.8,286.3,1049.8,286.3z M1049.8,285.6
			c-2.4,0-4.3,1.9-4.3,4.3c0,2.4,1.9,4.3,4.3,4.3s4.3-1.9,4.3-4.3l0,0C1054.1,287.6,1052.2,285.6,1049.8,285.6z"/>
		<path d="M1291.6,238c2,0,3.7,1.6,3.7,3.7l0,0c0,2-1.6,3.7-3.7,3.7s-3.7-1.6-3.7-3.7C1287.9,239.6,1289.6,238,1291.6,238z
			 M1291.6,237.3c-2.4,0-4.3,1.9-4.3,4.3c0,2.4,1.9,4.3,4.3,4.3s4.3-1.9,4.3-4.3l0,0C1295.9,239.3,1294,237.3,1291.6,237.3z"/>
		<path d="M1319.5,227.9c2,0,3.7,1.6,3.7,3.7l0,0c0,2-1.6,3.7-3.7,3.7s-3.7-1.6-3.7-3.7C1315.8,229.5,1317.5,227.9,1319.5,227.9z
			 M1319.5,227.2c-2.4,0-4.3,1.9-4.3,4.3c0,2.4,1.9,4.3,4.3,4.3s4.3-1.9,4.3-4.3l0,0C1323.8,229.1,1321.9,227.2,1319.5,227.2z"/>
		<path d="M1328.8,236.2c2,0,3.7,1.6,3.7,3.7l0,0c0,2-1.6,3.7-3.7,3.7s-3.7-1.6-3.7-3.7C1325.1,237.9,1326.8,236.2,1328.8,236.2z
			 M1328.8,235.6c-2.4,0-4.3,1.9-4.3,4.3c0,2.4,1.9,4.3,4.3,4.3s4.3-1.9,4.3-4.3l0,0C1333.1,237.5,1331.2,235.6,1328.8,235.6z"/>
		<path d="M1635.7,283.9c2,0,3.7,1.6,3.7,3.7l0,0c0,2-1.6,3.7-3.7,3.7s-3.7-1.6-3.7-3.7S1633.7,283.9,1635.7,283.9z M1635.7,283.3
			c-2.4,0-4.3,1.9-4.3,4.3c0,2.4,1.9,4.3,4.3,4.3s4.3-1.9,4.3-4.3l0,0C1640,285.2,1638.1,283.3,1635.7,283.3z"/>
		<path class="st14" d="M547.6,250c2,0,3.7,1.6,3.7,3.7l0,0c0,2-1.6,3.7-3.7,3.7s-3.7-1.6-3.7-3.7C543.9,251.6,545.6,250,547.6,250z
			 M547.6,249.3c-2.4,0-4.3,1.9-4.3,4.3s1.9,4.3,4.3,4.3s4.3-1.9,4.3-4.3l0,0C551.9,251.2,550,249.3,547.6,249.3z"/>
		<path class="st14" d="M575.5,242.3c2,0,3.7,1.6,3.7,3.7l0,0c0,2-1.6,3.7-3.7,3.7s-3.7-1.6-3.7-3.7
			C571.8,243.9,573.5,242.3,575.5,242.3z M575.5,241.6c-2.4,0-4.3,1.9-4.3,4.3c0,2.4,1.9,4.3,4.3,4.3s4.3-1.9,4.3-4.3l0,0
			C579.8,243.6,577.9,241.6,575.5,241.6z"/>
		<path class="st14" d="M603.4,254.8c2,0,3.7,1.6,3.7,3.7l0,0c0,2-1.6,3.7-3.7,3.7s-3.7-1.6-3.7-3.7S601.4,254.8,603.4,254.8z
			 M603.4,254.2c-2.4,0-4.3,1.9-4.3,4.3c0,2.4,1.9,4.3,4.3,4.3s4.3-1.9,4.3-4.3l0,0C607.7,256.1,605.8,254.2,603.4,254.2z"/>
		<path class="st14" d="M612.7,284.5c2,0,3.7,1.6,3.7,3.7l0,0c0,2-1.6,3.7-3.7,3.7s-3.7-1.6-3.7-3.7S610.7,284.5,612.7,284.5z
			 M612.7,283.8c-2.4,0-4.3,1.9-4.3,4.3c0,2.4,1.9,4.3,4.3,4.3s4.3-1.9,4.3-4.3l0,0C617,285.7,615.1,283.8,612.7,283.8z"/>
		<path class="st14" d="M1263.7,248.6c2,0,3.7,1.6,3.7,3.7l0,0c0,2-1.6,3.7-3.7,3.7s-3.7-1.6-3.7-3.7
			C1260,250.2,1261.7,248.6,1263.7,248.6z M1263.7,247.9c-2.4,0-4.3,1.9-4.3,4.3c0,2.4,1.9,4.3,4.3,4.3s4.3-1.9,4.3-4.3l0,0
			C1268,249.8,1266.1,247.9,1263.7,247.9z"/>
		<path class="st14" d="M1384.6,249.7c2,0,3.7,1.6,3.7,3.7l0,0c0,2-1.6,3.7-3.7,3.7s-3.7-1.6-3.7-3.7
			C1380.9,251.3,1382.6,249.7,1384.6,249.7z M1384.6,249c-2.4,0-4.3,1.9-4.3,4.3c0,2.4,1.9,4.3,4.3,4.3s4.3-1.9,4.3-4.3l0,0
			C1388.9,251,1387,249,1384.6,249z"/>
		<path class="st14" d="M1421.8,243.1c2,0,3.7,1.6,3.7,3.7l0,0c0,2-1.6,3.7-3.7,3.7s-3.7-1.6-3.7-3.7
			C1418.1,244.8,1419.8,243.1,1421.8,243.1z M1421.8,242.5c-2.4,0-4.3,1.9-4.3,4.3c0,2.4,1.9,4.3,4.3,4.3s4.3-1.9,4.3-4.3l0,0
			C1426.1,244.4,1424.2,242.5,1421.8,242.5z"/>
		<path class="st14" d="M1449.7,241.5c2,0,3.7,1.6,3.7,3.7l0,0c0,2-1.6,3.7-3.7,3.7s-3.7-1.6-3.7-3.7
			C1446,243.1,1447.7,241.5,1449.7,241.5z M1449.7,240.8c-2.4,0-4.3,1.9-4.3,4.3c0,2.4,1.9,4.3,4.3,4.3s4.3-1.9,4.3-4.3l0,0
			C1454,242.7,1452.1,240.8,1449.7,240.8z"/>
		<path class="st14" d="M1477.6,245.9c2,0,3.7,1.6,3.7,3.7l0,0c0,2-1.6,3.7-3.7,3.7s-3.7-1.6-3.7-3.7
			C1473.9,247.5,1475.6,245.9,1477.6,245.9z M1477.6,245.2c-2.4,0-4.3,1.9-4.3,4.3c0,2.4,1.9,4.3,4.3,4.3s4.3-1.9,4.3-4.3l0,0
			C1481.9,247.2,1480,245.2,1477.6,245.2z"/>
		<path class="st14" d="M1505.5,256.4c2,0,3.7,1.6,3.7,3.7l0,0c0,2-1.6,3.7-3.7,3.7s-3.7-1.6-3.7-3.7S1503.5,256.4,1505.5,256.4z
			 M1505.5,255.7c-2.4,0-4.3,1.9-4.3,4.3c0,2.4,1.9,4.3,4.3,4.3s4.3-1.9,4.3-4.3l0,0C1509.8,257.7,1507.9,255.7,1505.5,255.7z"/>
		<path class="st14" d="M1514.8,283.5c2,0,3.7,1.6,3.7,3.7l0,0c0,2-1.6,3.7-3.7,3.7s-3.7-1.6-3.7-3.7S1512.8,283.5,1514.8,283.5z
			 M1514.8,282.8c-2.4,0-4.3,1.9-4.3,4.3c0,2.4,1.9,4.3,4.3,4.3s4.3-1.9,4.3-4.3l0,0C1519.1,284.7,1517.2,282.8,1514.8,282.8z"/>
	</g>
	<g>
		<path class="st1" d="M1727,262v-41h-130v41H1727z"/>
	</g>
	<g transform="translate(1644,229)">
		<text transform="matrix(1 0 0 1 0 3)" class="st4 st10">Raw Magnitude</text>
	</g>
	<g>
		<line class="st13" x1="1601" y1="229" x2="1641" y2="229"/>
	</g>
	<g transform="translate(1644,241.5)">
		<text transform="matrix(1 0 0 1 0 3)" class="st4 st10">Walk Marker</text>
	</g>
	<g transform="translate(1621,241.5)">
		<path d="M0-3.7C2-3.7,3.7-2,3.7,0l0,0C3.7,2,2,3.7,0,3.7S-3.7,2-3.7,0S-2-3.7,0-3.7z M0-4.3c-2.4,0-4.3,1.9-4.3,4.3
			S-2.4,4.3,0,4.3S4.3,2.4,4.3,0l0,0C4.3-2.4,2.4-4.3,0-4.3z"/>
	</g>
	<g transform="translate(1644,254)">
		<text transform="matrix(1 0 0 1 0 3)" class="st4 st10">Run Marker</text>
	</g>
	<g transform="translate(1621,254)">
		<path class="st14" d="M0-3.7C2-3.7,3.7-2,3.7,0l0,0C3.7,2,2,3.7,0,3.7S-3.7,2-3.7,0S-2-3.7,0-3.7z M0-4.3c-2.4,0-4.3,1.9-4.3,4.3
			S-2.4,4.3,0,4.3S4.3,2.4,4.3,0l0,0C4.3-2.4,2.4-4.3,0-4.3z"/>
		<path class="st11" d="M-24,8v-41h130V8H-24z"/>
	</g>
	<g>
		<path class="st1" d="M250,447h1488v-95H250V447z"/>
	</g>
	<g>
		<line class="st2" x1="250" y1="447" x2="1738" y2="447"/>
		<line class="st2" x1="250" y1="447" x2="250" y2="432.1"/>
		<line class="st2" x1="436" y1="447" x2="436" y2="432.1"/>
		<line class="st2" x1="622" y1="447" x2="622" y2="432.1"/>
		<line class="st2" x1="808" y1="447" x2="808" y2="432.1"/>
		<line class="st2" x1="994" y1="447" x2="994" y2="432.1"/>
		<line class="st2" x1="1180" y1="447" x2="1180" y2="432.1"/>
		<line class="st2" x1="1366" y1="447" x2="1366" y2="432.1"/>
		<line class="st2" x1="1552" y1="447" x2="1552" y2="432.1"/>
		<line class="st2" x1="1738" y1="447" x2="1738" y2="432.1"/>
	</g>
	<g transform="translate(250,449.9333)">
		<text transform="matrix(1 0 0 1 -3.5 9)" class="st3 st4 st5">0</text>
	</g>
	<g transform="translate(436,449.9333)">
		<text transform="matrix(1 0 0 1 -6.5 9)" class="st3 st4 st5">20</text>
	</g>
	<g transform="translate(622,449.9333)">
		<text transform="matrix(1 0 0 1 -6.5 9)" class="st3 st4 st5">40</text>
	</g>
	<g transform="translate(808,449.9333)">
		<text transform="matrix(1 0 0 1 -6.5 9)" class="st3 st4 st5">60</text>
	</g>
	<g transform="translate(994,449.9333)">
		<text transform="matrix(1 0 0 1 -6.5 9)" class="st3 st4 st5">80</text>
	</g>
	<g transform="translate(1180,449.9333)">
		<text transform="matrix(1 0 0 1 -9.5 9)" class="st3 st4 st5">100</text>
	</g>
	<g transform="translate(1366,449.9333)">
		<text transform="matrix(1 0 0 1 -9.5 9)" class="st3 st4 st5">120</text>
	</g>
	<g transform="translate(1552,449.9333)">
		<text transform="matrix(1 0 0 1 -9.5 9)" class="st3 st4 st5">140</text>
	</g>
	<g transform="translate(1738,449.9333)">
		<text transform="matrix(1 0 0 1 -9.5 9)" class="st3 st4 st5">160</text>
	</g>
	<g transform="translate(994.0007,462.2667)">
		<text transform="matrix(1 0 0 1 -40.5 10)" class="st3 st4 st6">Sample index</text>
	</g>
	<g>
		<line class="st2" x1="250" y1="447" x2="250" y2="352"/>
		<line class="st2" x1="250" y1="447" x2="264.9" y2="447"/>
		<line class="st2" x1="250" y1="423.2" x2="264.9" y2="423.2"/>
		<line class="st2" x1="250" y1="399.5" x2="264.9" y2="399.5"/>
		<line class="st2" x1="250" y1="375.8" x2="264.9" y2="375.8"/>
		<line class="st2" x1="250" y1="352" x2="264.9" y2="352"/>
	</g>
	<g transform="translate(247.0667,447)">
		<text transform="matrix(1 0 0 1 -7 3)" class="st3 st4 st5">0</text>
	</g>
	<g transform="translate(247.0667,423.25)">
		<text transform="matrix(1 0 0 1 -7 3)" class="st3 st4 st5">1</text>
	</g>
	<g transform="translate(247.0667,399.5)">
		<text transform="matrix(1 0 0 1 -7 3)" class="st3 st4 st5">2</text>
	</g>
	<g transform="translate(247.0667,375.75)">
		<text transform="matrix(1 0 0 1 -7 3)" class="st3 st4 st5">3</text>
	</g>
	<g transform="translate(247.0667,352)">
		<text transform="matrix(1 0 0 1 -7 3)" class="st3 st4 st5">4</text>
	</g>
	<g transform="translate(238.0667,399.5) rotate(-90)">
		<text transform="matrix(1 0 0 1 -31.5001 -3)" class="st3 st4 st6">Magnitude</text>
	</g>
	<g transform="translate(994.0009,349.6625)">
		<text transform="matrix(1 0 0 1 -141 -3)" class="st12 st6">More Advanced Detection - Raw Magnitude</text>
	</g>
	<g>
		<path class="st13" d="M259.3,420.3l9.3,2.6l9.3,0.1l9.3,0.5l9.3-0.8l9.3,1.3l9.3-3.6l9.3,4.4l9.3-1.9l9.3,0.7l9.3-0.6l9.3,0.4
			l9.3-0.8l9.3-0.9l9.3,1.8l9.3-0.9l9.3,0.8l9.3-0.3l9.3,0.2l9.3,0.5l9.3-0.1l9.3-0.5l9.3,0.5l9.3-0.1l9.3-4.7l9.3-39.3l9.3-14.7
			l9.3,15l9.3,1.3l9.3-2.1l9.3-11.8l9.3,24.9l9.3-27.3h9.3l9.3,19.6l9.3-7.3l9.3-12.3l9.3,32.2l9.3,30l9.3-4.5l9.3-1.1l9.3,0.6
			l9.3,2.5l9.3-1.5l9.3-0.6l9.3-0.3l9.3,0.5l9.3-0.6l9.3-6.6l9.3-3.5l9.3,10.3l9.3,8.4l9.3-0.1l9.3-5.4l9.3-0.3l9.3,12.6l9.3-25.5
			l9.3,5.8l9.3-6.8l9.3-0.6l9.3,9.9l9.3,3.8l9.3,6.2l9.3-1.4l9.3-4.8l9.3,4.3l9.3-0.8l9.3-6.7l9.3-0.1l9.3-7.4l9.3,0.3l9.3,1.7
			l9.3,9.7l9.3,3.2l9.3,0.7l9.3-5l9.3,3.2l9.3,3l9.3-9.7l9.3-3.6l9.3,4.6l9.3-0.7l9.3-9.3l9.3,1.4l9.3,9.6l9.3,6.5l9.3,0.1l9.3-3.1
			l9.3-1.1l9.3-1.6l9.3,0.2l9.3,0.3l9.3-0.4l9.3,0.6l9.3-0.2l9.3-0.3l9.3,0.2l9.3-0.4l9.3,0.7l9.3,0l9.3-0.5l9.3,0.5l9.3-0.3
			l9.3,0.1l9.3,0l9.3-2.9l9.3-33.8l9.3-22.1l9.3,25.9l9.3-15l9.3-10.9l9.3,15.2l9.3-1.7l9.3-13.5l9.3,5l9.3,8.4l9.3-1.1l9.3-2.2
			l9.3,3.7l9.3-13.8h9.3l9.3,27l9.3-11.5l9.3-2.8l9.3-10.9l9.3,18.5l9.3,2l9.3-22.4l9.3,18.7l9.3-5.4l9.3-13.3l9.3,23.2l9.3-23.2
			h9.3l9.3,33.8l9.3,27.4l9.3,2.1l9.3-5.8l9.3,0.5l9.3,0.2l9.3-0.4l9.3,2.7l9.3-2.8l9.3-0.4l9.3,1.5l9.3-2.7l9.3-3l9.3,0.4l9.3,8.1
			l9.3-3l9.3,0.5l9.3-2.4l9.3,1.9l9.3,0l9.3,0.1l9.3-0.8l9.3,0.1"/>
		<path class="st15" d="M315.1,416.6c2,0,3.7,1.6,3.7,3.7l0,0c0,2-1.6,3.7-3.7,3.7s-3.7-1.6-3.7-3.7S313.1,416.6,315.1,416.6z
			 M315.1,416c-2.4,0-4.3,1.9-4.3,4.3c0,2.4,1.9,4.3,4.3,4.3s4.3-1.9,4.3-4.3l0,0C319.4,417.9,317.5,416,315.1,416z"/>
		<path class="st15" d="M380.2,417.9c2,0,3.7,1.6,3.7,3.7l0,0c0,2-1.6,3.7-3.7,3.7s-3.7-1.6-3.7-3.7S378.2,417.9,380.2,417.9z
			 M380.2,417.3c-2.4,0-4.3,1.9-4.3,4.3c0,2.4,1.9,4.3,4.3,4.3s4.3-1.9,4.3-4.3l0,0C384.5,419.2,382.6,417.3,380.2,417.3z"/>
		<path class="st15" d="M501.1,361.1c2,0,3.7,1.6,3.7,3.7l0,0c0,2-1.6,3.7-3.7,3.7s-3.7-1.6-3.7-3.7S499.1,361.1,501.1,361.1z
			 M501.1,360.4c-2.4,0-4.3,1.9-4.3,4.3c0,2.4,1.9,4.3,4.3,4.3s4.3-1.9,4.3-4.3l0,0C505.4,362.3,503.5,360.4,501.1,360.4z"/>
		<path class="st15" d="M538.3,363.5c2,0,3.7,1.6,3.7,3.7l0,0c0,2-1.6,3.7-3.7,3.7s-3.7-1.6-3.7-3.7S536.3,363.5,538.3,363.5z
			 M538.3,362.8c-2.4,0-4.3,1.9-4.3,4.3c0,2.4,1.9,4.3,4.3,4.3s4.3-1.9,4.3-4.3l0,0C542.6,364.7,540.7,362.8,538.3,362.8z"/>
		<path class="st15" d="M594.1,361.1c2,0,3.7,1.6,3.7,3.7l0,0c0,2-1.6,3.7-3.7,3.7s-3.7-1.6-3.7-3.7S592.1,361.1,594.1,361.1z
			 M594.1,360.4c-2.4,0-4.3,1.9-4.3,4.3c0,2.4,1.9,4.3,4.3,4.3s4.3-1.9,4.3-4.3l0,0C598.4,362.3,596.5,360.4,594.1,360.4z"/>
		<path class="st15" d="M631.3,417.7c2,0,3.7,1.6,3.7,3.7l0,0c0,2-1.6,3.7-3.7,3.7s-3.7-1.6-3.7-3.7S629.3,417.7,631.3,417.7z
			 M631.3,417c-2.4,0-4.3,1.9-4.3,4.3c0,2.4,1.9,4.3,4.3,4.3s4.3-1.9,4.3-4.3l0,0C635.6,419,633.7,417,631.3,417z"/>
		<path class="st15" d="M677.8,418.4c2,0,3.7,1.6,3.7,3.7l0,0c0,2-1.6,3.7-3.7,3.7s-3.7-1.6-3.7-3.7S675.8,418.4,677.8,418.4z
			 M677.8,417.7c-2.4,0-4.3,1.9-4.3,4.3c0,2.4,1.9,4.3,4.3,4.3s4.3-1.9,4.3-4.3l0,0C682.1,419.7,680.2,417.7,677.8,417.7z"/>
		<path class="st15" d="M715,408.2c2,0,3.7,1.6,3.7,3.7l0,0c0,2-1.6,3.7-3.7,3.7s-3.7-1.6-3.7-3.7S713,408.2,715,408.2z M715,407.6
			c-2.4,0-4.3,1.9-4.3,4.3c0,2.4,1.9,4.3,4.3,4.3s4.3-1.9,4.3-4.3l0,0C719.3,409.5,717.4,407.6,715,407.6z"/>
		<path class="st15" d="M780.1,408.1c2,0,3.7,1.6,3.7,3.7l0,0c0,2-1.6,3.7-3.7,3.7s-3.7-1.6-3.7-3.7S778.1,408.1,780.1,408.1z
			 M780.1,407.4c-2.4,0-4.3,1.9-4.3,4.3c0,2.4,1.9,4.3,4.3,4.3s4.3-1.9,4.3-4.3l0,0C784.4,409.4,782.5,407.4,780.1,407.4z"/>
		<path class="st15" d="M901,409.5c2,0,3.7,1.6,3.7,3.7l0,0c0,2-1.6,3.7-3.7,3.7s-3.7-1.6-3.7-3.7S899,409.5,901,409.5z M901,408.9
			c-2.4,0-4.3,1.9-4.3,4.3c0,2.4,1.9,4.3,4.3,4.3s4.3-1.9,4.3-4.3l0,0C905.3,410.8,903.4,408.9,901,408.9z"/>
		<path class="st15" d="M994,413c2,0,3.7,1.6,3.7,3.7l0,0c0,2-1.6,3.7-3.7,3.7s-3.7-1.6-3.7-3.7S992,413,994,413z M994,412.4
			c-2.4,0-4.3,1.9-4.3,4.3c0,2.4,1.9,4.3,4.3,4.3s4.3-1.9,4.3-4.3l0,0C998.3,414.3,996.4,412.4,994,412.4z"/>
		<path class="st15" d="M1254.4,361.1c2,0,3.7,1.6,3.7,3.7l0,0c0,2-1.6,3.7-3.7,3.7s-3.7-1.6-3.7-3.7S1252.4,361.1,1254.4,361.1z
			 M1254.4,360.4c-2.4,0-4.3,1.9-4.3,4.3c0,2.4,1.9,4.3,4.3,4.3s4.3-1.9,4.3-4.3l0,0C1258.7,362.3,1256.8,360.4,1254.4,360.4z"/>
		<path class="st15" d="M1310.2,361.1c2,0,3.7,1.6,3.7,3.7l0,0c0,2-1.6,3.7-3.7,3.7s-3.7-1.6-3.7-3.7S1308.2,361.1,1310.2,361.1z
			 M1310.2,360.4c-2.4,0-4.3,1.9-4.3,4.3c0,2.4,1.9,4.3,4.3,4.3s4.3-1.9,4.3-4.3l0,0C1314.5,362.3,1312.6,360.4,1310.2,360.4z"/>
		<path class="st15" d="M1347.4,371.2c2,0,3.7,1.6,3.7,3.7l0,0c0,2-1.6,3.7-3.7,3.7s-3.7-1.6-3.7-3.7S1345.4,371.2,1347.4,371.2z
			 M1347.4,370.5c-2.4,0-4.3,1.9-4.3,4.3c0,2.4,1.9,4.3,4.3,4.3s4.3-1.9,4.3-4.3l0,0C1351.7,372.5,1349.8,370.5,1347.4,370.5z"/>
		<path class="st15" d="M1412.5,363c2,0,3.7,1.6,3.7,3.7l0,0c0,2-1.6,3.7-3.7,3.7s-3.7-1.6-3.7-3.7S1410.5,363,1412.5,363z
			 M1412.5,362.3c-2.4,0-4.3,1.9-4.3,4.3c0,2.4,1.9,4.3,4.3,4.3s4.3-1.9,4.3-4.3l0,0C1416.8,364.2,1414.9,362.3,1412.5,362.3z"/>
		<path class="st15" d="M1468.3,361.1c2,0,3.7,1.6,3.7,3.7l0,0c0,2-1.6,3.7-3.7,3.7s-3.7-1.6-3.7-3.7S1466.3,361.1,1468.3,361.1z
			 M1468.3,360.4c-2.4,0-4.3,1.9-4.3,4.3c0,2.4,1.9,4.3,4.3,4.3s4.3-1.9,4.3-4.3l0,0C1472.6,362.3,1470.7,360.4,1468.3,360.4z"/>
		<path class="st15" d="M1589.2,418.4c2,0,3.7,1.6,3.7,3.7l0,0c0,2-1.6,3.7-3.7,3.7s-3.7-1.6-3.7-3.7S1587.2,418.4,1589.2,418.4z
			 M1589.2,417.7c-2.4,0-4.3,1.9-4.3,4.3c0,2.4,1.9,4.3,4.3,4.3s4.3-1.9,4.3-4.3l0,0C1593.5,419.6,1591.6,417.7,1589.2,417.7z"/>
		<path class="st15" d="M1663.6,417.8c2,0,3.7,1.6,3.7,3.7l0,0c0,2-1.6,3.7-3.7,3.7s-3.7-1.6-3.7-3.7S1661.6,417.8,1663.6,417.8z
			 M1663.6,417.1c-2.4,0-4.3,1.9-4.3,4.3c0,2.4,1.9,4.3,4.3,4.3s4.3-1.9,4.3-4.3l0,0C1667.9,419,1666,417.1,1663.6,417.1z"/>
	</g>
	<g>
		<path class="st1" d="M1727,387v-28h-192v28H1727z"/>
	</g>
	<g transform="translate(1582,366.8596)">
		<text transform="matrix(1 0 0 1 0 3)" class="st4 st10">Raw Magnitude</text>
	</g>
	<g>
		<line class="st13" x1="1539" y1="366.9" x2="1579" y2="366.9"/>
	</g>
	<g transform="translate(1582,379.1404)">
		<text transform="matrix(1 0 0 1 0 3)" class="st4 st10">Step Marker (Local Maxima)</text>
	</g>
	<g transform="translate(1559,379.1404)">
		<path class="st15" d="M0-3.7C2-3.7,3.7-2,3.7,0l0,0C3.7,2,2,3.7,0,3.7S-3.7,2-3.7,0S-2-3.7,0-3.7z M0-4.3c-2.4,0-4.3,1.9-4.3,4.3
			S-2.4,4.3,0,4.3S4.3,2.4,4.3,0l0,0C4.3-2.4,2.4-4.3,0-4.3z"/>
		<path class="st11" d="M-24,7.9v-28h192v28H-24z"/>
	</g>
	<g>
		<path class="st1" d="M250,585h1488v-94H250V585z"/>
	</g>
	<g>
		<line class="st2" x1="250" y1="585" x2="1738" y2="585"/>
		<line class="st2" x1="250" y1="585" x2="250" y2="570.1"/>
		<line class="st2" x1="436" y1="585" x2="436" y2="570.1"/>
		<line class="st2" x1="622" y1="585" x2="622" y2="570.1"/>
		<line class="st2" x1="808" y1="585" x2="808" y2="570.1"/>
		<line class="st2" x1="994" y1="585" x2="994" y2="570.1"/>
		<line class="st2" x1="1180" y1="585" x2="1180" y2="570.1"/>
		<line class="st2" x1="1366" y1="585" x2="1366" y2="570.1"/>
		<line class="st2" x1="1552" y1="585" x2="1552" y2="570.1"/>
		<line class="st2" x1="1738" y1="585" x2="1738" y2="570.1"/>
	</g>
	<g transform="translate(250,587.9333)">
		<text transform="matrix(1 0 0 1 -3.5 9)" class="st3 st4 st5">0</text>
	</g>
	<g transform="translate(436,587.9333)">
		<text transform="matrix(1 0 0 1 -6.5 9)" class="st3 st4 st5">20</text>
	</g>
	<g transform="translate(622,587.9333)">
		<text transform="matrix(1 0 0 1 -6.5 9)" class="st3 st4 st5">40</text>
	</g>
	<g transform="translate(808,587.9333)">
		<text transform="matrix(1 0 0 1 -6.5 9)" class="st3 st4 st5">60</text>
	</g>
	<g transform="translate(994,587.9333)">
		<text transform="matrix(1 0 0 1 -6.5 9)" class="st3 st4 st5">80</text>
	</g>
	<g transform="translate(1180,587.9333)">
		<text transform="matrix(1 0 0 1 -9.5 9)" class="st3 st4 st5">100</text>
	</g>
	<g transform="translate(1366,587.9333)">
		<text transform="matrix(1 0 0 1 -9.5 9)" class="st3 st4 st5">120</text>
	</g>
	<g transform="translate(1552,587.9333)">
		<text transform="matrix(1 0 0 1 -9.5 9)" class="st3 st4 st5">140</text>
	</g>
	<g transform="translate(1738,587.9333)">
		<text transform="matrix(1 0 0 1 -9.5 9)" class="st3 st4 st5">160</text>
	</g>
	<g transform="translate(994.0007,600.2667)">
		<text transform="matrix(1 0 0 1 -40.5 10)" class="st3 st4 st6">Sample index</text>
	</g>
	<g>
		<line class="st2" x1="250" y1="585" x2="250" y2="491"/>
		<line class="st2" x1="250" y1="585" x2="264.9" y2="585"/>
		<line class="st2" x1="250" y1="561.5" x2="264.9" y2="561.5"/>
		<line class="st2" x1="250" y1="538" x2="264.9" y2="538"/>
		<line class="st2" x1="250" y1="514.5" x2="264.9" y2="514.5"/>
		<line class="st2" x1="250" y1="491" x2="264.9" y2="491"/>
	</g>
	<g transform="translate(247.0667,585)">
		<text transform="matrix(1 0 0 1 -7 3)" class="st3 st4 st5">0</text>
	</g>
	<g transform="translate(247.0667,561.5)">
		<text transform="matrix(1 0 0 1 -7 3)" class="st3 st4 st5">1</text>
	</g>
	<g transform="translate(247.0667,538)">
		<text transform="matrix(1 0 0 1 -7 3)" class="st3 st4 st5">2</text>
	</g>
	<g transform="translate(247.0667,514.5)">
		<text transform="matrix(1 0 0 1 -7 3)" class="st3 st4 st5">3</text>
	</g>
	<g transform="translate(247.0667,491)">
		<text transform="matrix(1 0 0 1 -7 3)" class="st3 st4 st5">4</text>
	</g>
	<g transform="translate(238.0667,537.9999) rotate(-90)">
		<text transform="matrix(1 0 0 1 -31.5002 -3)" class="st3 st4 st6">Magnitude</text>
	</g>
	<g transform="translate(994.0009,488.6625)">
		<text transform="matrix(1 0 0 1 -116.5 -3)" class="st12 st6">HPF - Filtered Magnitude (Per Axis)</text>
	</g>
	<g>
		<path class="st16" d="M259.3,574.7l9.3-9.3l9.3,13.4l9.3,0l9.3,4.7l9.3,0.9l9.3-1.8l9.3-2l9.3,2.9l9.3-0.6l9.3,1.4l9.3-0.4
			l9.3,0.6l9.3-1.3l9.3,0.3l9.3,0.3l9.3,0.4l9.3,0.8l9.3-0.1l9.3-0.1l9.3,0.2l9.3-0.3l9.3-0.1l9.3-0.1l9.3-1.2l9.3-35.3l9.3-25.9
			l9.3,27.4l9.3-15.9l9.3,30.8l9.3-39.8l9.3,8.7l9.3,23.1l9.3-46.9l9.3,46.1l9.3-21.3l9.3-16.2l9.3,41.6l9.3-1.2l9.3,16.1l9.3,4
			l9.3,4.8l9.3-0.3l9.3,1.5l9.3,0.1l9.3,0.5l9.3-0.6l9.3,0.6l9.3-2.6l9.3,2.2l9.3-5.5l9.3,2.9l9.3,2.4l9.3-1l9.3-2.5l9.3-7.2
			l9.3,4.8l9.3-6.9l9.3,11.8l9.3,0.2l9.3-2.8l9.3,2.6l9.3-0.3l9.3,1l9.3-0.5l9.3-4.8l9.3-2.1l9.3,6.1l9.3-3.6l9.3,3.9l9.3-0.3
			l9.3,0.5l9.3-2l9.3,3.1l9.3-0.6l9.3-1.2l9.3-4.8l9.3,2.2l9.3,0.7l9.3-1.2l9.3-0.9l9.3,5.3l9.3-3.6l9.3,1.6l9.3-2.6l9.3,2.8
			l9.3,1.1l9.3-1.1l9.3,0l9.3,0.7l9.3,0.5l9.3,0.2l9.3,1l9.3-0.2l9.3,0.7l9.3-0.1l9.3,0l9.3-0.3l9.3-0.6l9.3,1l9.3-0.3l9.3,0.1
			l9.3-0.2l9.3,0l9.3,0.4l9.3-7.8l9.3-27.6l9.3,15.7l9.3-30.2l9.3,40.4l9.3-60.4l9.3,41.7l9.3-26.7l9.3-12.9l9.3,55.3l9.3-40.1
			l9.3,31.6l9.3-41l9.3,5.5l9.3,23.5l9.3-39.3l9.3,31.7l9.3,5.4l9.3-22.6l9.3,41.4l9.3-44.9l9.3,22.7l9.3-1.3l9.3-21.4l9.3,55.2
			l9.3-56.3l9.3,5l9.3,34.6l9.3-52.1l9.3,42.7l9.3,4.2l9.3,19.8l9.3-2.3l9.3,8.4l9.3-0.1l9.3,1.5l9.3-1.2l9.3-0.8l9.3,1.9l9.3-0.4
			l9.3-0.8l9.3,1.1l9.3-2l9.3-5.8l9.3-3l9.3,10.6l9.3-1l9.3-0.5l9.3,2l9.3-0.7l9.3,0.4l9.3-0.2"/>
		<path d="M277.9,575.1c2,0,3.7,1.6,3.7,3.7l0,0c0,2-1.6,3.7-3.7,3.7s-3.7-1.6-3.7-3.7C274.2,576.7,275.9,575.1,277.9,575.1z
			 M277.9,574.4c-2.4,0-4.3,1.9-4.3,4.3s1.9,4.3,4.3,4.3s4.3-1.9,4.3-4.3l0,0C282.2,576.4,280.3,574.4,277.9,574.4z"/>
		<path d="M547.6,529.2c2,0,3.7,1.6,3.7,3.7l0,0c0,2-1.6,3.7-3.7,3.7s-3.7-1.6-3.7-3.7C543.9,530.9,545.6,529.2,547.6,529.2z
			 M547.6,528.6c-2.4,0-4.3,1.9-4.3,4.3s1.9,4.3,4.3,4.3s4.3-1.9,4.3-4.3l0,0C551.9,530.5,550,528.6,547.6,528.6z"/>
		<path d="M622,570.5c2,0,3.7,1.6,3.7,3.7l0,0c0,2-1.6,3.7-3.7,3.7s-3.7-1.6-3.7-3.7C618.3,572.1,620,570.5,622,570.5z M622,569.8
			c-2.4,0-4.3,1.9-4.3,4.3s1.9,4.3,4.3,4.3s4.3-1.9,4.3-4.3l0,0C626.3,571.8,624.4,569.8,622,569.8z"/>
		<path d="M640.6,579.3c2,0,3.7,1.6,3.7,3.7l0,0c0,2-1.6,3.7-3.7,3.7s-3.7-1.6-3.7-3.7C636.9,580.9,638.6,579.3,640.6,579.3z
			 M640.6,578.6c-2.4,0-4.3,1.9-4.3,4.3s1.9,4.3,4.3,4.3s4.3-1.9,4.3-4.3l0,0C644.9,580.5,643,578.6,640.6,578.6z"/>
		<path d="M780.1,574.7c2,0,3.7,1.6,3.7,3.7l0,0c0,2-1.6,3.7-3.7,3.7s-3.7-1.6-3.7-3.7C776.4,576.3,778.1,574.7,780.1,574.7z
			 M780.1,574c-2.4,0-4.3,1.9-4.3,4.3s1.9,4.3,4.3,4.3s4.3-1.9,4.3-4.3l0,0C784.4,575.9,782.5,574,780.1,574z"/>
		<path d="M798.7,579.5c2,0,3.7,1.6,3.7,3.7l0,0c0,2-1.6,3.7-3.7,3.7s-3.7-1.6-3.7-3.7C795,581.2,796.7,579.5,798.7,579.5z
			 M798.7,578.9c-2.4,0-4.3,1.9-4.3,4.3s1.9,4.3,4.3,4.3s4.3-1.9,4.3-4.3l0,0C803,580.8,801.1,578.9,798.7,578.9z"/>
		<path d="M882.4,578.9c2,0,3.7,1.6,3.7,3.7l0,0c0,2-1.6,3.7-3.7,3.7s-3.7-1.6-3.7-3.7C878.7,580.5,880.4,578.9,882.4,578.9z
			 M882.4,578.2c-2.4,0-4.3,1.9-4.3,4.3s1.9,4.3,4.3,4.3s4.3-1.9,4.3-4.3l0,0C886.7,580.1,884.8,578.2,882.4,578.2z"/>
		<path d="M1012.6,580.1c2,0,3.7,1.6,3.7,3.7l0,0c0,2-1.6,3.7-3.7,3.7s-3.7-1.6-3.7-3.7C1008.9,581.7,1010.6,580.1,1012.6,580.1z
			 M1012.6,579.4c-2.4,0-4.3,1.9-4.3,4.3s1.9,4.3,4.3,4.3s4.3-1.9,4.3-4.3l0,0C1016.9,581.3,1015,579.4,1012.6,579.4z"/>
		<path d="M1254.4,561.4c2,0,3.7,1.6,3.7,3.7l0,0c0,2-1.6,3.7-3.7,3.7s-3.7-1.6-3.7-3.7C1250.7,563.1,1252.4,561.4,1254.4,561.4z
			 M1254.4,560.8c-2.4,0-4.3,1.9-4.3,4.3s1.9,4.3,4.3,4.3s4.3-1.9,4.3-4.3l0,0C1258.7,562.7,1256.8,560.8,1254.4,560.8z"/>
		<path d="M1356.7,524.6c2,0,3.7,1.6,3.7,3.7l0,0c0,2-1.6,3.7-3.7,3.7s-3.7-1.6-3.7-3.7C1353,526.2,1354.7,524.6,1356.7,524.6z
			 M1356.7,523.9c-2.4,0-4.3,1.9-4.3,4.3s1.9,4.3,4.3,4.3s4.3-1.9,4.3-4.3l0,0C1361,525.9,1359.1,523.9,1356.7,523.9z"/>
		<path d="M1393.9,545.9c2,0,3.7,1.6,3.7,3.7l0,0c0,2-1.6,3.7-3.7,3.7s-3.7-1.6-3.7-3.7C1390.2,547.6,1391.9,545.9,1393.9,545.9z
			 M1393.9,545.3c-2.4,0-4.3,1.9-4.3,4.3s1.9,4.3,4.3,4.3s4.3-1.9,4.3-4.3l0,0C1398.2,547.2,1396.3,545.3,1393.9,545.3z"/>
		<path d="M1477.6,523.8c2,0,3.7,1.6,3.7,3.7l0,0c0,2-1.6,3.7-3.7,3.7s-3.7-1.6-3.7-3.7C1473.9,525.5,1475.6,523.8,1477.6,523.8z
			 M1477.6,523.2c-2.4,0-4.3,1.9-4.3,4.3s1.9,4.3,4.3,4.3s4.3-1.9,4.3-4.3l0,0C1481.9,525.1,1480,523.2,1477.6,523.2z"/>
		<path d="M1542.7,579.3c2,0,3.7,1.6,3.7,3.7l0,0c0,2-1.6,3.7-3.7,3.7s-3.7-1.6-3.7-3.7C1539,580.9,1540.7,579.3,1542.7,579.3z
			 M1542.7,578.6c-2.4,0-4.3,1.9-4.3,4.3s1.9,4.3,4.3,4.3s4.3-1.9,4.3-4.3l0,0C1547,580.5,1545.1,578.6,1542.7,578.6z"/>
		<path d="M1654.3,580.3c2,0,3.7,1.6,3.7,3.7l0,0c0,2-1.6,3.7-3.7,3.7s-3.7-1.6-3.7-3.7C1650.6,581.9,1652.3,580.3,1654.3,580.3z
			 M1654.3,579.6c-2.4,0-4.3,1.9-4.3,4.3s1.9,4.3,4.3,4.3s4.3-1.9,4.3-4.3l0,0C1658.6,581.6,1656.7,579.6,1654.3,579.6z"/>
		<path class="st14" d="M510.4,545.5c2,0,3.7,1.6,3.7,3.7l0,0c0,2-1.6,3.7-3.7,3.7s-3.7-1.6-3.7-3.7
			C506.7,547.1,508.4,545.5,510.4,545.5z M510.4,544.8c-2.4,0-4.3,1.9-4.3,4.3s1.9,4.3,4.3,4.3c2.4,0,4.3-1.9,4.3-4.3l0,0
			C514.7,546.8,512.8,544.8,510.4,544.8z"/>
		<path class="st14" d="M529,560.4c2,0,3.7,1.6,3.7,3.7l0,0c0,2-1.6,3.7-3.7,3.7s-3.7-1.6-3.7-3.7C525.3,562,527,560.4,529,560.4z
			 M529,559.7c-2.4,0-4.3,1.9-4.3,4.3s1.9,4.3,4.3,4.3s4.3-1.9,4.3-4.3l0,0C533.3,561.7,531.4,559.7,529,559.7z"/>
		<path class="st14" d="M556.9,552.4c2,0,3.7,1.6,3.7,3.7l0,0c0,2-1.6,3.7-3.7,3.7s-3.7-1.6-3.7-3.7
			C553.2,554,554.9,552.4,556.9,552.4z M556.9,551.7c-2.4,0-4.3,1.9-4.3,4.3s1.9,4.3,4.3,4.3s4.3-1.9,4.3-4.3l0,0
			C561.2,553.6,559.3,551.7,556.9,551.7z"/>
		<path class="st14" d="M575.5,551.6c2,0,3.7,1.6,3.7,3.7l0,0c0,2-1.6,3.7-3.7,3.7s-3.7-1.6-3.7-3.7
			C571.8,553.3,573.5,551.6,575.5,551.6z M575.5,551c-2.4,0-4.3,1.9-4.3,4.3s1.9,4.3,4.3,4.3s4.3-1.9,4.3-4.3l0,0
			C579.8,552.9,577.9,551,575.5,551z"/>
		<path class="st14" d="M603.4,555.6c2,0,3.7,1.6,3.7,3.7l0,0c0,2-1.6,3.7-3.7,3.7s-3.7-1.6-3.7-3.7
			C599.7,557.3,601.4,555.6,603.4,555.6z M603.4,555c-2.4,0-4.3,1.9-4.3,4.3s1.9,4.3,4.3,4.3s4.3-1.9,4.3-4.3l0,0
			C607.7,556.9,605.8,555,603.4,555z"/>
		<path class="st14" d="M1273,571.6c2,0,3.7,1.6,3.7,3.7l0,0c0,2-1.6,3.7-3.7,3.7s-3.7-1.6-3.7-3.7
			C1269.3,573.3,1271,571.6,1273,571.6z M1273,571c-2.4,0-4.3,1.9-4.3,4.3s1.9,4.3,4.3,4.3s4.3-1.9,4.3-4.3l0,0
			C1277.3,572.9,1275.4,571,1273,571z"/>
		<path class="st14" d="M1291.6,552.9c2,0,3.7,1.6,3.7,3.7l0,0c0,2-1.6,3.7-3.7,3.7s-3.7-1.6-3.7-3.7
			C1287.9,554.6,1289.6,552.9,1291.6,552.9z M1291.6,552.3c-2.4,0-4.3,1.9-4.3,4.3s1.9,4.3,4.3,4.3s4.3-1.9,4.3-4.3l0,0
			C1295.9,554.2,1294,552.3,1291.6,552.3z"/>
		<path class="st14" d="M1319.5,568.6c2,0,3.7,1.6,3.7,3.7l0,0c0,2-1.6,3.7-3.7,3.7s-3.7-1.6-3.7-3.7
			C1315.8,570.2,1317.5,568.6,1319.5,568.6z M1319.5,567.9c-2.4,0-4.3,1.9-4.3,4.3s1.9,4.3,4.3,4.3s4.3-1.9,4.3-4.3l0,0
			C1323.8,569.9,1321.9,567.9,1319.5,567.9z"/>
		<path class="st14" d="M1338.1,560.1c2,0,3.7,1.6,3.7,3.7l0,0c0,2-1.6,3.7-3.7,3.7s-3.7-1.6-3.7-3.7
			C1334.4,561.8,1336.1,560.1,1338.1,560.1z M1338.1,559.5c-2.4,0-4.3,1.9-4.3,4.3s1.9,4.3,4.3,4.3s4.3-1.9,4.3-4.3l0,0
			C1342.4,561.4,1340.5,559.5,1338.1,559.5z"/>
		<path class="st14" d="M1366,548.1c2,0,3.7,1.6,3.7,3.7l0,0c0,2-1.6,3.7-3.7,3.7s-3.7-1.6-3.7-3.7
			C1362.3,549.7,1364,548.1,1366,548.1z M1366,547.4c-2.4,0-4.3,1.9-4.3,4.3s1.9,4.3,4.3,4.3s4.3-1.9,4.3-4.3l0,0
			C1370.3,549.4,1368.4,547.4,1366,547.4z"/>
		<path class="st14" d="M1384.6,540.5c2,0,3.7,1.6,3.7,3.7l0,0c0,2-1.6,3.7-3.7,3.7s-3.7-1.6-3.7-3.7
			C1380.9,542.2,1382.6,540.5,1384.6,540.5z M1384.6,539.9c-2.4,0-4.3,1.9-4.3,4.3s1.9,4.3,4.3,4.3s4.3-1.9,4.3-4.3l0,0
			C1388.9,541.8,1387,539.9,1384.6,539.9z"/>
		<path class="st14" d="M1412.5,564.8c2,0,3.7,1.6,3.7,3.7l0,0c0,2-1.6,3.7-3.7,3.7s-3.7-1.6-3.7-3.7
			C1408.8,566.4,1410.5,564.8,1412.5,564.8z M1412.5,564.1c-2.4,0-4.3,1.9-4.3,4.3s1.9,4.3,4.3,4.3s4.3-1.9,4.3-4.3l0,0
			C1416.8,566,1414.9,564.1,1412.5,564.1z"/>
		<path class="st14" d="M1431.1,542.5c2,0,3.7,1.6,3.7,3.7l0,0c0,2-1.6,3.7-3.7,3.7s-3.7-1.6-3.7-3.7
			C1427.4,544.2,1429.1,542.5,1431.1,542.5z M1431.1,541.9c-2.4,0-4.3,1.9-4.3,4.3s1.9,4.3,4.3,4.3s4.3-1.9,4.3-4.3l0,0
			C1435.4,543.8,1433.5,541.9,1431.1,541.9z"/>
		<path class="st14" d="M1459,575.1c2,0,3.7,1.6,3.7,3.7l0,0c0,2-1.6,3.7-3.7,3.7s-3.7-1.6-3.7-3.7
			C1455.3,576.8,1457,575.1,1459,575.1z M1459,574.5c-2.4,0-4.3,1.9-4.3,4.3s1.9,4.3,4.3,4.3s4.3-1.9,4.3-4.3l0,0
			C1463.3,576.4,1461.4,574.5,1459,574.5z"/>
		<path class="st14" d="M1486.9,558.4c2,0,3.7,1.6,3.7,3.7l0,0c0,2-1.6,3.7-3.7,3.7s-3.7-1.6-3.7-3.7
			C1483.2,560.1,1484.9,558.4,1486.9,558.4z M1486.9,557.8c-2.4,0-4.3,1.9-4.3,4.3s1.9,4.3,4.3,4.3s4.3-1.9,4.3-4.3l0,0
			C1491.2,559.7,1489.3,557.8,1486.9,557.8z"/>
		<path class="st14" d="M1505.5,549.1c2,0,3.7,1.6,3.7,3.7l0,0c0,2-1.6,3.7-3.7,3.7s-3.7-1.6-3.7-3.7
			C1501.8,550.7,1503.5,549.1,1505.5,549.1z M1505.5,548.4c-2.4,0-4.3,1.9-4.3,4.3s1.9,4.3,4.3,4.3s4.3-1.9,4.3-4.3l0,0
			C1509.8,550.3,1507.9,548.4,1505.5,548.4z"/>
		<path class="st14" d="M1524.1,573.1c2,0,3.7,1.6,3.7,3.7l0,0c0,2-1.6,3.7-3.7,3.7s-3.7-1.6-3.7-3.7
			C1520.4,574.8,1522.1,573.1,1524.1,573.1z M1524.1,572.5c-2.4,0-4.3,1.9-4.3,4.3s1.9,4.3,4.3,4.3s4.3-1.9,4.3-4.3l0,0
			C1528.4,574.4,1526.5,572.5,1524.1,572.5z"/>
		<path class="st15" d="M501.1,518.1c2,0,3.7,1.6,3.7,3.7l0,0c0,2-1.6,3.7-3.7,3.7s-3.7-1.6-3.7-3.7
			C497.4,519.8,499.1,518.1,501.1,518.1z M501.1,517.4c-2.4,0-4.3,1.9-4.3,4.3s1.9,4.3,4.3,4.3s4.3-1.9,4.3-4.3l0,0
			C505.4,519.4,503.5,517.4,501.1,517.4z"/>
		<path class="st15" d="M538.3,520.5c2,0,3.7,1.6,3.7,3.7l0,0c0,2-1.6,3.7-3.7,3.7s-3.7-1.6-3.7-3.7
			C534.6,522.2,536.3,520.5,538.3,520.5z M538.3,519.9c-2.4,0-4.3,1.9-4.3,4.3s1.9,4.3,4.3,4.3s4.3-1.9,4.3-4.3l0,0
			C542.6,521.8,540.7,519.9,538.3,519.9z"/>
		<path class="st15" d="M594.1,514.1c2,0,3.7,1.6,3.7,3.7l0,0c0,2-1.6,3.7-3.7,3.7s-3.7-1.6-3.7-3.7
			C590.4,515.7,592.1,514.1,594.1,514.1z M594.1,513.4c-2.4,0-4.3,1.9-4.3,4.3s1.9,4.3,4.3,4.3s4.3-1.9,4.3-4.3l0,0
			C598.4,515.3,596.5,513.4,594.1,513.4z"/>
		<path class="st15" d="M770.8,569.9c2,0,3.7,1.6,3.7,3.7l0,0c0,2-1.6,3.7-3.7,3.7s-3.7-1.6-3.7-3.7
			C767.1,571.5,768.8,569.9,770.8,569.9z M770.8,569.2c-2.4,0-4.3,1.9-4.3,4.3s1.9,4.3,4.3,4.3s4.3-1.9,4.3-4.3l0,0
			C775.1,571.1,773.2,569.2,770.8,569.2z"/>
		<path class="st15" d="M873.1,572.7c2,0,3.7,1.6,3.7,3.7l0,0c0,2-1.6,3.7-3.7,3.7s-3.7-1.6-3.7-3.7
			C869.4,574.4,871.1,572.7,873.1,572.7z M873.1,572.1c-2.4,0-4.3,1.9-4.3,4.3s1.9,4.3,4.3,4.3s4.3-1.9,4.3-4.3l0,0
			C877.4,574,875.5,572.1,873.1,572.1z"/>
		<path class="st15" d="M966.1,574c2,0,3.7,1.6,3.7,3.7l0,0c0,2-1.6,3.7-3.7,3.7s-3.7-1.6-3.7-3.7C962.4,575.6,964.1,574,966.1,574z
			 M966.1,573.3c-2.4,0-4.3,1.9-4.3,4.3s1.9,4.3,4.3,4.3s4.3-1.9,4.3-4.3l0,0C970.4,575.2,968.5,573.3,966.1,573.3z"/>
		<path class="st15" d="M1245.1,545.8c2,0,3.7,1.6,3.7,3.7l0,0c0,2-1.6,3.7-3.7,3.7s-3.7-1.6-3.7-3.7
			C1241.4,547.4,1243.1,545.8,1245.1,545.8z M1245.1,545.1c-2.4,0-4.3,1.9-4.3,4.3s1.9,4.3,4.3,4.3s4.3-1.9,4.3-4.3l0,0
			C1249.4,547.1,1247.5,545.1,1245.1,545.1z"/>
		<path class="st15" d="M1282.3,511.2c2,0,3.7,1.6,3.7,3.7l0,0c0,2-1.6,3.7-3.7,3.7s-3.7-1.6-3.7-3.7
			C1278.6,512.8,1280.3,511.2,1282.3,511.2z M1282.3,510.5c-2.4,0-4.3,1.9-4.3,4.3s1.9,4.3,4.3,4.3s4.3-1.9,4.3-4.3l0,0
			C1286.6,512.5,1284.7,510.5,1282.3,510.5z"/>
		<path class="st15" d="M1328.8,528.5c2,0,3.7,1.6,3.7,3.7l0,0c0,2-1.6,3.7-3.7,3.7s-3.7-1.6-3.7-3.7
			C1325.1,530.1,1326.8,528.5,1328.8,528.5z M1328.8,527.8c-2.4,0-4.3,1.9-4.3,4.3s1.9,4.3,4.3,4.3s4.3-1.9,4.3-4.3l0,0
			C1333.1,529.8,1331.2,527.8,1328.8,527.8z"/>
		<path class="st15" d="M1375.3,508.8c2,0,3.7,1.6,3.7,3.7l0,0c0,2-1.6,3.7-3.7,3.7s-3.7-1.6-3.7-3.7
			C1371.6,510.5,1373.3,508.8,1375.3,508.8z M1375.3,508.2c-2.4,0-4.3,1.9-4.3,4.3c0,2.4,1.9,4.3,4.3,4.3s4.3-1.9,4.3-4.3l0,0
			C1379.6,510.1,1377.7,508.2,1375.3,508.2z"/>
		<path class="st15" d="M1421.8,519.8c2,0,3.7,1.6,3.7,3.7l0,0c0,2-1.6,3.7-3.7,3.7s-3.7-1.6-3.7-3.7
			C1418.1,521.5,1419.8,519.8,1421.8,519.8z M1421.8,519.1c-2.4,0-4.3,1.9-4.3,4.3s1.9,4.3,4.3,4.3s4.3-1.9,4.3-4.3l0,0
			C1426.1,521.1,1424.2,519.1,1421.8,519.1z"/>
		<path class="st15" d="M1468.3,518.8c2,0,3.7,1.6,3.7,3.7l0,0c0,2-1.6,3.7-3.7,3.7s-3.7-1.6-3.7-3.7
			C1464.6,520.4,1466.3,518.8,1468.3,518.8z M1468.3,518.1c-2.4,0-4.3,1.9-4.3,4.3s1.9,4.3,4.3,4.3s4.3-1.9,4.3-4.3l0,0
			C1472.6,520.1,1470.7,518.1,1468.3,518.1z"/>
		<path class="st15" d="M1533.4,570.8c2,0,3.7,1.6,3.7,3.7l0,0c0,2-1.6,3.7-3.7,3.7s-3.7-1.6-3.7-3.7
			C1529.7,572.5,1531.4,570.8,1533.4,570.8z M1533.4,570.2c-2.4,0-4.3,1.9-4.3,4.3s1.9,4.3,4.3,4.3s4.3-1.9,4.3-4.3l0,0
			C1537.7,572.1,1535.8,570.2,1533.4,570.2z"/>
		<path class="st15" d="M1645,569.7c2,0,3.7,1.6,3.7,3.7l0,0c0,2-1.6,3.7-3.7,3.7s-3.7-1.6-3.7-3.7
			C1641.3,571.3,1643,569.7,1645,569.7z M1645,569c-2.4,0-4.3,1.9-4.3,4.3s1.9,4.3,4.3,4.3s4.3-1.9,4.3-4.3l0,0
			C1649.3,571,1647.4,569,1645,569z"/>
	</g>
	<g>
		<path class="st1" d="M1727,551v-53h-146v53H1727z"/>
	</g>
	<g transform="translate(1628,505.9252)">
		<text transform="matrix(1 0 0 1 0 3)" class="st4 st10">HPF Signal</text>
	</g>
	<g>
		<line class="st16" x1="1585" y1="505.9" x2="1625" y2="505.9"/>
	</g>
	<g transform="translate(1628,518.3084)">
		<text transform="matrix(1 0 0 1 0 3)" class="st4 st10">HPF Walk Marker</text>
	</g>
	<g transform="translate(1605,518.3084)">
		<path d="M0-3.7C2-3.7,3.7-2,3.7,0l0,0C3.7,2,2,3.7,0,3.7S-3.7,2-3.7,0S-2-3.7,0-3.7z M0-4.3c-2.4,0-4.3,1.9-4.3,4.3
			S-2.4,4.3,0,4.3S4.3,2.4,4.3,0l0,0C4.3-2.4,2.4-4.3,0-4.3z"/>
	</g>
	<g transform="translate(1628,530.6916)">
		<text transform="matrix(1 0 0 1 0 3)" class="st4 st10">HPF Run Marker</text>
	</g>
	<g transform="translate(1605,530.6916)">
		<path class="st14" d="M0-3.7C2-3.7,3.7-2,3.7,0l0,0C3.7,2,2,3.7,0,3.7S-3.7,2-3.7,0S-2-3.7,0-3.7z M0-4.3c-2.4,0-4.3,1.9-4.3,4.3
			S-2.4,4.3,0,4.3S4.3,2.4,4.3,0l0,0C4.3-2.4,2.4-4.3,0-4.3z"/>
	</g>
	<g transform="translate(1628,543.0748)">
		<text transform="matrix(1 0 0 1 0 3)" class="st4 st10">HPF Local Maxima</text>
	</g>
	<g transform="translate(1605,543.0748)">
		<path class="st15" d="M0-3.7C2-3.7,3.7-2,3.7,0l0,0C3.7,2,2,3.7,0,3.7S-3.7,2-3.7,0S-2-3.7,0-3.7z M0-4.3c-2.4,0-4.3,1.9-4.3,4.3
			S-2.4,4.3,0,4.3S4.3,2.4,4.3,0l0,0C4.3-2.4,2.4-4.3,0-4.3z"/>
		<path class="st11" d="M-24,7.9v-53h146v53H-24z"/>
	</g>
	<g>
		<path class="st1" d="M250,724h1488v-94H250V724z"/>
	</g>
	<g>
		<line class="st2" x1="250" y1="724" x2="1738" y2="724"/>
		<line class="st2" x1="250" y1="724" x2="250" y2="709.1"/>
		<line class="st2" x1="436" y1="724" x2="436" y2="709.1"/>
		<line class="st2" x1="622" y1="724" x2="622" y2="709.1"/>
		<line class="st2" x1="808" y1="724" x2="808" y2="709.1"/>
		<line class="st2" x1="994" y1="724" x2="994" y2="709.1"/>
		<line class="st2" x1="1180" y1="724" x2="1180" y2="709.1"/>
		<line class="st2" x1="1366" y1="724" x2="1366" y2="709.1"/>
		<line class="st2" x1="1552" y1="724" x2="1552" y2="709.1"/>
		<line class="st2" x1="1738" y1="724" x2="1738" y2="709.1"/>
	</g>
	<g transform="translate(250,726.9333)">
		<text transform="matrix(1 0 0 1 -3.5 9)" class="st3 st4 st5">0</text>
	</g>
	<g transform="translate(436,726.9333)">
		<text transform="matrix(1 0 0 1 -6.5 9)" class="st3 st4 st5">20</text>
	</g>
	<g transform="translate(622,726.9333)">
		<text transform="matrix(1 0 0 1 -6.5 9)" class="st3 st4 st5">40</text>
	</g>
	<g transform="translate(808,726.9333)">
		<text transform="matrix(1 0 0 1 -6.5 9)" class="st3 st4 st5">60</text>
	</g>
	<g transform="translate(994,726.9333)">
		<text transform="matrix(1 0 0 1 -6.5 9)" class="st3 st4 st5">80</text>
	</g>
	<g transform="translate(1180,726.9333)">
		<text transform="matrix(1 0 0 1 -9.5 9)" class="st3 st4 st5">100</text>
	</g>
	<g transform="translate(1366,726.9333)">
		<text transform="matrix(1 0 0 1 -9.5 9)" class="st3 st4 st5">120</text>
	</g>
	<g transform="translate(1552,726.9333)">
		<text transform="matrix(1 0 0 1 -9.5 9)" class="st3 st4 st5">140</text>
	</g>
	<g transform="translate(1738,726.9333)">
		<text transform="matrix(1 0 0 1 -9.5 9)" class="st3 st4 st5">160</text>
	</g>
	<g transform="translate(994.0007,739.2667)">
		<text transform="matrix(1 0 0 1 -40.5 10)" class="st3 st4 st6">Sample index</text>
	</g>
	<g>
		<line class="st2" x1="250" y1="724" x2="250" y2="630"/>
		<line class="st2" x1="250" y1="724" x2="264.9" y2="724"/>
		<line class="st2" x1="250" y1="700.5" x2="264.9" y2="700.5"/>
		<line class="st2" x1="250" y1="677" x2="264.9" y2="677"/>
		<line class="st2" x1="250" y1="653.5" x2="264.9" y2="653.5"/>
		<line class="st2" x1="250" y1="630" x2="264.9" y2="630"/>
	</g>
	<g transform="translate(247.0667,724)">
		<text transform="matrix(1 0 0 1 -7 3)" class="st3 st4 st5">0</text>
	</g>
	<g transform="translate(247.0667,700.5)">
		<text transform="matrix(1 0 0 1 -7 3)" class="st3 st4 st5">1</text>
	</g>
	<g transform="translate(247.0667,677)">
		<text transform="matrix(1 0 0 1 -7 3)" class="st3 st4 st5">2</text>
	</g>
	<g transform="translate(247.0667,653.5)">
		<text transform="matrix(1 0 0 1 -7 3)" class="st3 st4 st5">3</text>
	</g>
	<g transform="translate(247.0667,630)">
		<text transform="matrix(1 0 0 1 -7 3)" class="st3 st4 st5">4</text>
	</g>
	<g transform="translate(238.0667,676.9999) rotate(-90)">
		<text transform="matrix(1 0 0 1 -31.5002 -3)" class="st3 st4 st6">Magnitude</text>
	</g>
	<g transform="translate(994.0009,627.6625)">
		<text transform="matrix(1 0 0 1 -151 -3)" class="st12 st6">BPF - Bandpass Filtered Magnitude (Per Axis)</text>
	</g>
	<g>
		<path class="st13" d="M259.3,702.8l9.3-0.4l9.3,8.1l9.3,6.6l9.3,2.8l9.3-0.4l9.3-0.9l9.3-3.4l9.3,2.2l9.3-0.2l9.3,1.7l9.3,1.2
			l9.3,1.4l9.3-0.8l9.3,0.8l9.3-0.5l9.3,0.9l9.3,0.4l9.3,0.9l9.3-0.1l9.3,0.8l9.3-0.9l9.3,0.8l9.3-1.2l9.3-3.1l9.3-66.6l9.3-4.7
			l9.3,40.4l9.3-22.5l9.3,17.6l9.3-25.9l9.3,43.1l9.3-41.6l9.3-9.9l9.3,43.1l9.3-28.4l9.3,3.4l9.3,12.6l9.3,16.1l9.3,13.4l9.3,6.1
			l9.3,0.2l9.3-2.2l9.3,0.6l9.3,0.4l9.3,1.2l9.3,0.6l9.3,1.2l9.3-1l9.3,0.1l9.3,2.2l9.3-9l9.3-4.4l9.3,0.5l9.3,5.5l9.3-4.6l9.3-20.4
			l9.3,15.6l9.3,3.4l9.3,8.9l9.3,2.7l9.3-7.7l9.3-6.9l9.3-0.3l9.3,0.6l9.3,15.1l9.3-11.3l9.3-5.1l9.3,3.9l9.3,1.7l9.3,8.8l9.3,6.2
			l9.3-10.9l9.3-6l9.3-1.2l9.3-3.3l9.3,15.8l9.3-0.6l9.3-16.8l9.3,3.7l9.3,10.6l9.3,1.8l9.3-1.1l9.3,7.4l9.3-9.7l9.3-8.8l9.3-1.3
			l9.3,4.7l9.3,7l9.3,7.3l9.3,1.8l9.3-4.4l9.3-1.6l9.3-0.2l9.3,0.4l9.3,0.9l9.3,1l9.3,0.6l9.3,1.5l9.3,0.9l9.3,1.2l9.3-0.2l9.3,0.5
			l9.3,0.1l9.3,0l9.3-16l9.3-47.9l9.3,9.5l9.3,10.5l9.3-13.7l9.3-3.8l9.3,30.9l9.3-37l9.3,15.1l9.3,23.5l9.3-36.4l9.3,10.7l9.3-1.2
			l9.3,17.7l9.3-17.4l9.3-24.1l9.3,64l9.3-26.8l9.3-12l9.3,12.4l9.3-24.5l9.3,42.9l9.3-27.8l9.3-0.1l9.3,11l9.3-27.5l9.3,38.9
			l9.3-27.2l9.3-20.5l9.3,33.2l9.3,21l9.3,7.7l9.3,9.9l9.3,0.3l9.3-3.6l9.3-1.6l9.3,0.1l9.3,0.6l9.3,1l9.3,0.5l9.3,1.1l9.3,1l9.3,0
			l9.3-11.7l9.3,16l9.3-1l9.3-0.9l9.3,0.9l9.3,1l9.3,0.4l9.3-1.5l9.3,1.6"/>
		<path d="M277.9,706.9c2,0,3.7,1.6,3.7,3.7l0,0c0,2-1.6,3.7-3.7,3.7s-3.7-1.6-3.7-3.7C274.2,708.5,275.9,706.9,277.9,706.9z
			 M277.9,706.2c-2.4,0-4.3,1.9-4.3,4.3s1.9,4.3,4.3,4.3s4.3-1.9,4.3-4.3l0,0C282.2,708.1,280.3,706.2,277.9,706.2z"/>
		<path d="M287.2,713.5c2,0,3.7,1.6,3.7,3.7l0,0c0,2-1.6,3.7-3.7,3.7s-3.7-1.6-3.7-3.7C283.5,715.1,285.2,713.5,287.2,713.5z
			 M287.2,712.8c-2.4,0-4.3,1.9-4.3,4.3s1.9,4.3,4.3,4.3s4.3-1.9,4.3-4.3l0,0C291.5,714.8,289.6,712.8,287.2,712.8z"/>
		<path d="M603.4,676.5c2,0,3.7,1.6,3.7,3.7l0,0c0,2-1.6,3.7-3.7,3.7s-3.7-1.6-3.7-3.7C599.7,678.2,601.4,676.5,603.4,676.5z
			 M603.4,675.9c-2.4,0-4.3,1.9-4.3,4.3s1.9,4.3,4.3,4.3s4.3-1.9,4.3-4.3l0,0C607.7,677.8,605.8,675.9,603.4,675.9z"/>
		<path d="M612.7,692.6c2,0,3.7,1.6,3.7,3.7l0,0c0,2-1.6,3.7-3.7,3.7s-3.7-1.6-3.7-3.7C609,694.2,610.7,692.6,612.7,692.6z
			 M612.7,691.9c-2.4,0-4.3,1.9-4.3,4.3s1.9,4.3,4.3,4.3s4.3-1.9,4.3-4.3l0,0C617,693.9,615.1,691.9,612.7,691.9z"/>
		<path d="M622,706c2,0,3.7,1.6,3.7,3.7l0,0c0,2-1.6,3.7-3.7,3.7s-3.7-1.6-3.7-3.7C618.3,707.7,620,706,622,706z M622,705.3
			c-2.4,0-4.3,1.9-4.3,4.3s1.9,4.3,4.3,4.3s4.3-1.9,4.3-4.3l0,0C626.3,707.3,624.4,705.3,622,705.3z"/>
		<path d="M631.3,712.1c2,0,3.7,1.6,3.7,3.7l0,0c0,2-1.6,3.7-3.7,3.7s-3.7-1.6-3.7-3.7C627.6,713.8,629.3,712.1,631.3,712.1z
			 M631.3,711.5c-2.4,0-4.3,1.9-4.3,4.3s1.9,4.3,4.3,4.3s4.3-1.9,4.3-4.3l0,0C635.6,713.4,633.7,711.5,631.3,711.5z"/>
		<path d="M761.5,708c2,0,3.7,1.6,3.7,3.7l0,0c0,2-1.6,3.7-3.7,3.7s-3.7-1.6-3.7-3.7C757.8,709.7,759.5,708,761.5,708z M761.5,707.4
			c-2.4,0-4.3,1.9-4.3,4.3s1.9,4.3,4.3,4.3s4.3-1.9,4.3-4.3l0,0C765.8,709.3,763.9,707.4,761.5,707.4z"/>
		<path d="M789.4,698.6c2,0,3.7,1.6,3.7,3.7l0,0c0,2-1.6,3.7-3.7,3.7s-3.7-1.6-3.7-3.7C785.7,700.3,787.4,698.6,789.4,698.6z
			 M789.4,698c-2.4,0-4.3,1.9-4.3,4.3s1.9,4.3,4.3,4.3s4.3-1.9,4.3-4.3l0,0C793.7,699.9,791.8,698,789.4,698z"/>
		<path d="M808,710.9c2,0,3.7,1.6,3.7,3.7l0,0c0,2-1.6,3.7-3.7,3.7s-3.7-1.6-3.7-3.7C804.3,712.6,806,710.9,808,710.9z M808,710.3
			c-2.4,0-4.3,1.9-4.3,4.3s1.9,4.3,4.3,4.3s4.3-1.9,4.3-4.3l0,0C812.3,712.2,810.4,710.3,808,710.3z"/>
		<path d="M863.8,714.5c2,0,3.7,1.6,3.7,3.7l0,0c0,2-1.6,3.7-3.7,3.7s-3.7-1.6-3.7-3.7C860.1,716.1,861.8,714.5,863.8,714.5z
			 M863.8,713.8c-2.4,0-4.3,1.9-4.3,4.3s1.9,4.3,4.3,4.3s4.3-1.9,4.3-4.3l0,0C868.1,715.8,866.2,713.8,863.8,713.8z"/>
		<path d="M910.3,712.4c2,0,3.7,1.6,3.7,3.7l0,0c0,2-1.6,3.7-3.7,3.7s-3.7-1.6-3.7-3.7C906.6,714,908.3,712.4,910.3,712.4z
			 M910.3,711.7c-2.4,0-4.3,1.9-4.3,4.3s1.9,4.3,4.3,4.3s4.3-1.9,4.3-4.3l0,0C914.6,713.7,912.7,711.7,910.3,711.7z"/>
		<path d="M919.6,718.6c2,0,3.7,1.6,3.7,3.7l0,0c0,2-1.6,3.7-3.7,3.7s-3.7-1.6-3.7-3.7C915.9,720.2,917.6,718.6,919.6,718.6z
			 M919.6,717.9c-2.4,0-4.3,1.9-4.3,4.3s1.9,4.3,4.3,4.3s4.3-1.9,4.3-4.3l0,0C923.9,719.9,922,717.9,919.6,717.9z"/>
		<path d="M966.1,713.1c2,0,3.7,1.6,3.7,3.7l0,0c0,2-1.6,3.7-3.7,3.7s-3.7-1.6-3.7-3.7C962.4,714.7,964.1,713.1,966.1,713.1z
			 M966.1,712.4c-2.4,0-4.3,1.9-4.3,4.3s1.9,4.3,4.3,4.3s4.3-1.9,4.3-4.3l0,0C970.4,714.3,968.5,712.4,966.1,712.4z"/>
		<path d="M1003.3,709.9c2,0,3.7,1.6,3.7,3.7l0,0c0,2-1.6,3.7-3.7,3.7s-3.7-1.6-3.7-3.7C999.6,711.5,1001.3,709.9,1003.3,709.9z
			 M1003.3,709.2c-2.4,0-4.3,1.9-4.3,4.3s1.9,4.3,4.3,4.3s4.3-1.9,4.3-4.3l0,0C1007.6,711.1,1005.7,709.2,1003.3,709.2z"/>
		<path d="M1031.2,718c2,0,3.7,1.6,3.7,3.7l0,0c0,2-1.6,3.7-3.7,3.7s-3.7-1.6-3.7-3.7C1027.5,719.7,1029.2,718,1031.2,718z
			 M1031.2,717.4c-2.4,0-4.3,1.9-4.3,4.3s1.9,4.3,4.3,4.3s4.3-1.9,4.3-4.3l0,0C1035.5,719.3,1033.6,717.4,1031.2,717.4z"/>
		<path d="M1068.4,703c2,0,3.7,1.6,3.7,3.7l0,0c0,2-1.6,3.7-3.7,3.7s-3.7-1.6-3.7-3.7C1064.7,704.6,1066.4,703,1068.4,703z
			 M1068.4,702.3c-2.4,0-4.3,1.9-4.3,4.3s1.9,4.3,4.3,4.3s4.3-1.9,4.3-4.3l0,0C1072.7,704.2,1070.8,702.3,1068.4,702.3z"/>
		<path d="M1077.7,710c2,0,3.7,1.6,3.7,3.7l0,0c0,2-1.6,3.7-3.7,3.7s-3.7-1.6-3.7-3.7C1074,711.6,1075.7,710,1077.7,710z
			 M1077.7,709.3c-2.4,0-4.3,1.9-4.3,4.3s1.9,4.3,4.3,4.3s4.3-1.9,4.3-4.3l0,0C1082,711.3,1080.1,709.3,1077.7,709.3z"/>
		<path d="M1087,717.3c2,0,3.7,1.6,3.7,3.7l0,0c0,2-1.6,3.7-3.7,3.7s-3.7-1.6-3.7-3.7C1083.3,718.9,1085,717.3,1087,717.3z
			 M1087,716.6c-2.4,0-4.3,1.9-4.3,4.3s1.9,4.3,4.3,4.3s4.3-1.9,4.3-4.3l0,0C1091.3,718.5,1089.4,716.6,1087,716.6z"/>
		<path d="M1254.4,665.3c2,0,3.7,1.6,3.7,3.7l0,0c0,2-1.6,3.7-3.7,3.7s-3.7-1.6-3.7-3.7C1250.7,667,1252.4,665.3,1254.4,665.3z
			 M1254.4,664.7c-2.4,0-4.3,1.9-4.3,4.3s1.9,4.3,4.3,4.3s4.3-1.9,4.3-4.3l0,0C1258.7,666.6,1256.8,664.7,1254.4,664.7z"/>
		<path d="M1263.7,675.8c2,0,3.7,1.6,3.7,3.7l0,0c0,2-1.6,3.7-3.7,3.7s-3.7-1.6-3.7-3.7C1260,677.4,1261.7,675.8,1263.7,675.8z
			 M1263.7,675.1c-2.4,0-4.3,1.9-4.3,4.3s1.9,4.3,4.3,4.3s4.3-1.9,4.3-4.3l0,0C1268,677.1,1266.1,675.1,1263.7,675.1z"/>
		<path d="M1310.2,667.3c2,0,3.7,1.6,3.7,3.7l0,0c0,2-1.6,3.7-3.7,3.7s-3.7-1.6-3.7-3.7C1306.5,668.9,1308.2,667.3,1310.2,667.3z
			 M1310.2,666.6c-2.4,0-4.3,1.9-4.3,4.3s1.9,4.3,4.3,4.3s4.3-1.9,4.3-4.3l0,0C1314.5,668.5,1312.6,666.6,1310.2,666.6z"/>
		<path d="M1338.1,665c2,0,3.7,1.6,3.7,3.7l0,0c0,2-1.6,3.7-3.7,3.7s-3.7-1.6-3.7-3.7C1334.4,666.6,1336.1,665,1338.1,665z
			 M1338.1,664.3c-2.4,0-4.3,1.9-4.3,4.3s1.9,4.3,4.3,4.3s4.3-1.9,4.3-4.3l0,0C1342.4,666.2,1340.5,664.3,1338.1,664.3z"/>
		<path d="M1412.5,677.7c2,0,3.7,1.6,3.7,3.7l0,0c0,2-1.6,3.7-3.7,3.7s-3.7-1.6-3.7-3.7C1408.8,679.3,1410.5,677.7,1412.5,677.7z
			 M1412.5,677c-2.4,0-4.3,1.9-4.3,4.3s1.9,4.3,4.3,4.3s4.3-1.9,4.3-4.3l0,0C1416.8,678.9,1414.9,677,1412.5,677z"/>
		<path d="M1459,679.2c2,0,3.7,1.6,3.7,3.7l0,0c0,2-1.6,3.7-3.7,3.7s-3.7-1.6-3.7-3.7C1455.3,680.9,1457,679.2,1459,679.2z
			 M1459,678.6c-2.4,0-4.3,1.9-4.3,4.3s1.9,4.3,4.3,4.3s4.3-1.9,4.3-4.3l0,0C1463.3,680.5,1461.4,678.6,1459,678.6z"/>
		<path d="M1524.1,704.8c2,0,3.7,1.6,3.7,3.7l0,0c0,2-1.6,3.7-3.7,3.7s-3.7-1.6-3.7-3.7C1520.4,706.5,1522.1,704.8,1524.1,704.8z
			 M1524.1,704.2c-2.4,0-4.3,1.9-4.3,4.3s1.9,4.3,4.3,4.3s4.3-1.9,4.3-4.3l0,0C1528.4,706.1,1526.5,704.2,1524.1,704.2z"/>
		<path d="M1533.4,714.8c2,0,3.7,1.6,3.7,3.7l0,0c0,2-1.6,3.7-3.7,3.7s-3.7-1.6-3.7-3.7C1529.7,716.4,1531.4,714.8,1533.4,714.8z
			 M1533.4,714.1c-2.4,0-4.3,1.9-4.3,4.3s1.9,4.3,4.3,4.3s4.3-1.9,4.3-4.3l0,0C1537.7,716,1535.8,714.1,1533.4,714.1z"/>
		<path d="M1645,718.5c2,0,3.7,1.6,3.7,3.7l0,0c0,2-1.6,3.7-3.7,3.7s-3.7-1.6-3.7-3.7C1641.3,720.1,1643,718.5,1645,718.5z
			 M1645,717.8c-2.4,0-4.3,1.9-4.3,4.3s1.9,4.3,4.3,4.3s4.3-1.9,4.3-4.3l0,0C1649.3,719.7,1647.4,717.8,1645,717.8z"/>
		<path class="st14" d="M510.4,685c2,0,3.7,1.6,3.7,3.7l0,0c0,2-1.6,3.7-3.7,3.7s-3.7-1.6-3.7-3.7C506.7,686.6,508.4,685,510.4,685z
			 M510.4,684.3c-2.4,0-4.3,1.9-4.3,4.3s1.9,4.3,4.3,4.3c2.4,0,4.3-1.9,4.3-4.3l0,0C514.7,686.3,512.8,684.3,510.4,684.3z"/>
		<path class="st14" d="M529,680.1c2,0,3.7,1.6,3.7,3.7l0,0c0,2-1.6,3.7-3.7,3.7s-3.7-1.6-3.7-3.7C525.3,681.8,527,680.1,529,680.1z
			 M529,679.5c-2.4,0-4.3,1.9-4.3,4.3s1.9,4.3,4.3,4.3s4.3-1.9,4.3-4.3l0,0C533.3,681.4,531.4,679.5,529,679.5z"/>
		<path class="st14" d="M547.6,697.4c2,0,3.7,1.6,3.7,3.7l0,0c0,2-1.6,3.7-3.7,3.7s-3.7-1.6-3.7-3.7
			C543.9,699,545.6,697.4,547.6,697.4z M547.6,696.7c-2.4,0-4.3,1.9-4.3,4.3s1.9,4.3,4.3,4.3s4.3-1.9,4.3-4.3l0,0
			C551.9,698.6,550,696.7,547.6,696.7z"/>
		<path class="st14" d="M575.5,688.9c2,0,3.7,1.6,3.7,3.7l0,0c0,2-1.6,3.7-3.7,3.7s-3.7-1.6-3.7-3.7
			C571.8,690.6,573.5,688.9,575.5,688.9z M575.5,688.3c-2.4,0-4.3,1.9-4.3,4.3s1.9,4.3,4.3,4.3s4.3-1.9,4.3-4.3l0,0
			C579.8,690.2,577.9,688.3,575.5,688.3z"/>
		<path class="st14" d="M1291.6,689.2c2,0,3.7,1.6,3.7,3.7l0,0c0,2-1.6,3.7-3.7,3.7s-3.7-1.6-3.7-3.7
			C1287.9,690.9,1289.6,689.2,1291.6,689.2z M1291.6,688.6c-2.4,0-4.3,1.9-4.3,4.3s1.9,4.3,4.3,4.3s4.3-1.9,4.3-4.3l0,0
			C1295.9,690.5,1294,688.6,1291.6,688.6z"/>
		<path class="st14" d="M1319.5,690.8c2,0,3.7,1.6,3.7,3.7l0,0c0,2-1.6,3.7-3.7,3.7s-3.7-1.6-3.7-3.7
			C1315.8,692.4,1317.5,690.8,1319.5,690.8z M1319.5,690.1c-2.4,0-4.3,1.9-4.3,4.3s1.9,4.3,4.3,4.3s4.3-1.9,4.3-4.3l0,0
			C1323.8,692,1321.9,690.1,1319.5,690.1z"/>
		<path class="st14" d="M1356.7,681.5c2,0,3.7,1.6,3.7,3.7l0,0c0,2-1.6,3.7-3.7,3.7s-3.7-1.6-3.7-3.7
			C1353,683.2,1354.7,681.5,1356.7,681.5z M1356.7,680.9c-2.4,0-4.3,1.9-4.3,4.3s1.9,4.3,4.3,4.3s4.3-1.9,4.3-4.3l0,0
			C1361,682.8,1359.1,680.9,1356.7,680.9z"/>
		<path class="st14" d="M1384.6,704.1c2,0,3.7,1.6,3.7,3.7l0,0c0,2-1.6,3.7-3.7,3.7s-3.7-1.6-3.7-3.7
			C1380.9,705.7,1382.6,704.1,1384.6,704.1z M1384.6,703.4c-2.4,0-4.3,1.9-4.3,4.3s1.9,4.3,4.3,4.3s4.3-1.9,4.3-4.3l0,0
			C1388.9,705.4,1387,703.4,1384.6,703.4z"/>
		<path class="st14" d="M1431.1,696.1c2,0,3.7,1.6,3.7,3.7l0,0c0,2-1.6,3.7-3.7,3.7s-3.7-1.6-3.7-3.7
			C1427.4,697.7,1429.1,696.1,1431.1,696.1z M1431.1,695.4c-2.4,0-4.3,1.9-4.3,4.3s1.9,4.3,4.3,4.3s4.3-1.9,4.3-4.3l0,0
			C1435.4,697.4,1433.5,695.4,1431.1,695.4z"/>
		<path class="st14" d="M1477.6,690.7c2,0,3.7,1.6,3.7,3.7l0,0c0,2-1.6,3.7-3.7,3.7s-3.7-1.6-3.7-3.7
			C1473.9,692.3,1475.6,690.7,1477.6,690.7z M1477.6,690c-2.4,0-4.3,1.9-4.3,4.3s1.9,4.3,4.3,4.3s4.3-1.9,4.3-4.3l0,0
			C1481.9,691.9,1480,690,1477.6,690z"/>
		<path class="st14" d="M1505.5,676.1c2,0,3.7,1.6,3.7,3.7l0,0c0,2-1.6,3.7-3.7,3.7s-3.7-1.6-3.7-3.7
			C1501.8,677.7,1503.5,676.1,1505.5,676.1z M1505.5,675.4c-2.4,0-4.3,1.9-4.3,4.3s1.9,4.3,4.3,4.3s4.3-1.9,4.3-4.3l0,0
			C1509.8,677.4,1507.9,675.4,1505.5,675.4z"/>
		<path class="st14" d="M1514.8,697.1c2,0,3.7,1.6,3.7,3.7l0,0c0,2-1.6,3.7-3.7,3.7s-3.7-1.6-3.7-3.7
			C1511.1,698.8,1512.8,697.1,1514.8,697.1z M1514.8,696.5c-2.4,0-4.3,1.9-4.3,4.3s1.9,4.3,4.3,4.3s4.3-1.9,4.3-4.3l0,0
			C1519.1,698.4,1517.2,696.5,1514.8,696.5z"/>
		<path class="st17" d="M324.4,711.5c2,0,3.7,1.6,3.7,3.7l0,0c0,2-1.6,3.7-3.7,3.7s-3.7-1.6-3.7-3.7
			C320.7,713.2,322.4,711.5,324.4,711.5z M324.4,710.9c-2.4,0-4.3,1.9-4.3,4.3s1.9,4.3,4.3,4.3s4.3-1.9,4.3-4.3l0,0
			C328.7,712.8,326.8,710.9,324.4,710.9z"/>
		<path class="st17" d="M501.1,644.5c2,0,3.7,1.6,3.7,3.7l0,0c0,2-1.6,3.7-3.7,3.7s-3.7-1.6-3.7-3.7
			C497.4,646.2,499.1,644.5,501.1,644.5z M501.1,643.9c-2.4,0-4.3,1.9-4.3,4.3s1.9,4.3,4.3,4.3s4.3-1.9,4.3-4.3l0,0
			C505.4,645.8,503.5,643.9,501.1,643.9z"/>
		<path class="st17" d="M584.8,660.5c2,0,3.7,1.6,3.7,3.7l0,0c0,2-1.6,3.7-3.7,3.7s-3.7-1.6-3.7-3.7
			C581.1,662.2,582.8,660.5,584.8,660.5z M584.8,659.8c-2.4,0-4.3,1.9-4.3,4.3s1.9,4.3,4.3,4.3s4.3-1.9,4.3-4.3l0,0
			C589.1,661.8,587.2,659.8,584.8,659.8z"/>
		<path class="st17" d="M705.7,713.1c2,0,3.7,1.6,3.7,3.7l0,0c0,2-1.6,3.7-3.7,3.7s-3.7-1.6-3.7-3.7
			C702,714.7,703.7,713.1,705.7,713.1z M705.7,712.4c-2.4,0-4.3,1.9-4.3,4.3s1.9,4.3,4.3,4.3s4.3-1.9,4.3-4.3l0,0
			C710,714.4,708.1,712.4,705.7,712.4z"/>
		<path class="st17" d="M780.1,683c2,0,3.7,1.6,3.7,3.7l0,0c0,2-1.6,3.7-3.7,3.7s-3.7-1.6-3.7-3.7C776.4,684.7,778.1,683,780.1,683z
			 M780.1,682.4c-2.4,0-4.3,1.9-4.3,4.3s1.9,4.3,4.3,4.3s4.3-1.9,4.3-4.3l0,0C784.4,684.3,782.5,682.4,780.1,682.4z"/>
		<path class="st17" d="M882.4,698c2,0,3.7,1.6,3.7,3.7l0,0c0,2-1.6,3.7-3.7,3.7s-3.7-1.6-3.7-3.7C878.7,699.7,880.4,698,882.4,698z
			 M882.4,697.4c-2.4,0-4.3,1.9-4.3,4.3s1.9,4.3,4.3,4.3s4.3-1.9,4.3-4.3l0,0C886.7,699.3,884.8,697.4,882.4,697.4z"/>
		<path class="st17" d="M956.8,697.3c2,0,3.7,1.6,3.7,3.7l0,0c0,2-1.6,3.7-3.7,3.7s-3.7-1.6-3.7-3.7
			C953.1,698.9,954.8,697.3,956.8,697.3z M956.8,696.6c-2.4,0-4.3,1.9-4.3,4.3s1.9,4.3,4.3,4.3s4.3-1.9,4.3-4.3l0,0
			C961.1,698.5,959.2,696.6,956.8,696.6z"/>
		<path class="st17" d="M1059.1,698.2c2,0,3.7,1.6,3.7,3.7l0,0c0,2-1.6,3.7-3.7,3.7s-3.7-1.6-3.7-3.7
			C1055.4,699.9,1057.1,698.2,1059.1,698.2z M1059.1,697.6c-2.4,0-4.3,1.9-4.3,4.3s1.9,4.3,4.3,4.3s4.3-1.9,4.3-4.3l0,0
			C1063.4,699.5,1061.5,697.6,1059.1,697.6z"/>
		<path class="st17" d="M1245.1,655.9c2,0,3.7,1.6,3.7,3.7l0,0c0,2-1.6,3.7-3.7,3.7s-3.7-1.6-3.7-3.7
			C1241.4,657.5,1243.1,655.9,1245.1,655.9z M1245.1,655.2c-2.4,0-4.3,1.9-4.3,4.3s1.9,4.3,4.3,4.3s4.3-1.9,4.3-4.3l0,0
			C1249.4,657.1,1247.5,655.2,1245.1,655.2z"/>
		<path class="st17" d="M1328.8,654.3c2,0,3.7,1.6,3.7,3.7l0,0c0,2-1.6,3.7-3.7,3.7s-3.7-1.6-3.7-3.7
			C1325.1,656,1326.8,654.3,1328.8,654.3z M1328.8,653.7c-2.4,0-4.3,1.9-4.3,4.3s1.9,4.3,4.3,4.3s4.3-1.9,4.3-4.3l0,0
			C1333.1,655.6,1331.2,653.7,1328.8,653.7z"/>
		<path class="st17" d="M1403.2,665.3c2,0,3.7,1.6,3.7,3.7l0,0c0,2-1.6,3.7-3.7,3.7s-3.7-1.6-3.7-3.7
			C1399.5,666.9,1401.2,665.3,1403.2,665.3z M1403.2,664.6c-2.4,0-4.3,1.9-4.3,4.3s1.9,4.3,4.3,4.3s4.3-1.9,4.3-4.3l0,0
			C1407.5,666.6,1405.6,664.6,1403.2,664.6z"/>
		<path class="st17" d="M1496.2,642.9c2,0,3.7,1.6,3.7,3.7l0,0c0,2-1.6,3.7-3.7,3.7s-3.7-1.6-3.7-3.7
			C1492.5,644.5,1494.2,642.9,1496.2,642.9z M1496.2,642.2c-2.4,0-4.3,1.9-4.3,4.3s1.9,4.3,4.3,4.3s4.3-1.9,4.3-4.3l0,0
			C1500.5,644.1,1498.6,642.2,1496.2,642.2z"/>
		<path class="st17" d="M1635.7,702.4c2,0,3.7,1.6,3.7,3.7l0,0c0,2-1.6,3.7-3.7,3.7s-3.7-1.6-3.7-3.7
			C1632,704.1,1633.7,702.4,1635.7,702.4z M1635.7,701.8c-2.4,0-4.3,1.9-4.3,4.3s1.9,4.3,4.3,4.3s4.3-1.9,4.3-4.3l0,0
			C1640,703.7,1638.1,701.8,1635.7,701.8z"/>
	</g>
	<g>
		<path class="st1" d="M1727,690v-53h-146v53H1727z"/>
	</g>
	<g transform="translate(1628,644.9252)">
		<text transform="matrix(1 0 0 1 0 3)" class="st4 st10">BPF Signal</text>
	</g>
	<g>
		<line class="st13" x1="1585" y1="644.9" x2="1625" y2="644.9"/>
	</g>
	<g transform="translate(1628,657.3084)">
		<text transform="matrix(1 0 0 1 0 3)" class="st4 st10">BPF Walk Marker</text>
	</g>
	<g transform="translate(1605,657.3084)">
		<path d="M0-3.7C2-3.7,3.7-2,3.7,0l0,0C3.7,2,2,3.7,0,3.7S-3.7,2-3.7,0S-2-3.7,0-3.7z M0-4.3c-2.4,0-4.3,1.9-4.3,4.3
			S-2.4,4.3,0,4.3S4.3,2.4,4.3,0l0,0C4.3-2.4,2.4-4.3,0-4.3z"/>
	</g>
	<g transform="translate(1628,669.6916)">
		<text transform="matrix(1 0 0 1 0 3)" class="st4 st10">BPF Run Marker</text>
	</g>
	<g transform="translate(1605,669.6916)">
		<path class="st14" d="M0-3.7C2-3.7,3.7-2,3.7,0l0,0C3.7,2,2,3.7,0,3.7S-3.7,2-3.7,0S-2-3.7,0-3.7z M0-4.3c-2.4,0-4.3,1.9-4.3,4.3
			S-2.4,4.3,0,4.3S4.3,2.4,4.3,0l0,0C4.3-2.4,2.4-4.3,0-4.3z"/>
	</g>
	<g transform="translate(1628,682.0748)">
		<text transform="matrix(1 0 0 1 0 3)" class="st4 st10">BPF Local Maxima</text>
	</g>
	<g transform="translate(1605,682.0748)">
		<path class="st17" d="M0-3.7C2-3.7,3.7-2,3.7,0l0,0C3.7,2,2,3.7,0,3.7S-3.7,2-3.7,0S-2-3.7,0-3.7z M0-4.3c-2.4,0-4.3,1.9-4.3,4.3
			S-2.4,4.3,0,4.3S4.3,2.4,4.3,0l0,0C4.3-2.4,2.4-4.3,0-4.3z"/>
		<path class="st11" d="M-24,7.9v-53h146v53H-24z"/>
	</g>
	<g>
		<path class="st1" d="M250,863h1488v-95H250V863z"/>
	</g>
	<g>
		<line class="st2" x1="250" y1="863" x2="1738" y2="863"/>
		<line class="st2" x1="250" y1="863" x2="250" y2="848.1"/>
		<line class="st2" x1="436" y1="863" x2="436" y2="848.1"/>
		<line class="st2" x1="622" y1="863" x2="622" y2="848.1"/>
		<line class="st2" x1="808" y1="863" x2="808" y2="848.1"/>
		<line class="st2" x1="994" y1="863" x2="994" y2="848.1"/>
		<line class="st2" x1="1180" y1="863" x2="1180" y2="848.1"/>
		<line class="st2" x1="1366" y1="863" x2="1366" y2="848.1"/>
		<line class="st2" x1="1552" y1="863" x2="1552" y2="848.1"/>
		<line class="st2" x1="1738" y1="863" x2="1738" y2="848.1"/>
	</g>
	<g transform="translate(250,865.9333)">
		<text transform="matrix(1 0 0 1 -3.5 9)" class="st3 st4 st5">0</text>
	</g>
	<g transform="translate(436,865.9333)">
		<text transform="matrix(1 0 0 1 -6.5 9)" class="st3 st4 st5">20</text>
	</g>
	<g transform="translate(622,865.9333)">
		<text transform="matrix(1 0 0 1 -6.5 9)" class="st3 st4 st5">40</text>
	</g>
	<g transform="translate(808,865.9333)">
		<text transform="matrix(1 0 0 1 -6.5 9)" class="st3 st4 st5">60</text>
	</g>
	<g transform="translate(994,865.9333)">
		<text transform="matrix(1 0 0 1 -6.5 9)" class="st3 st4 st5">80</text>
	</g>
	<g transform="translate(1180,865.9333)">
		<text transform="matrix(1 0 0 1 -9.5 9)" class="st3 st4 st5">100</text>
	</g>
	<g transform="translate(1366,865.9333)">
		<text transform="matrix(1 0 0 1 -9.5 9)" class="st3 st4 st5">120</text>
	</g>
	<g transform="translate(1552,865.9333)">
		<text transform="matrix(1 0 0 1 -9.5 9)" class="st3 st4 st5">140</text>
	</g>
	<g transform="translate(1738,865.9333)">
		<text transform="matrix(1 0 0 1 -9.5 9)" class="st3 st4 st5">160</text>
	</g>
	<g transform="translate(994.0007,878.2667)">
		<text transform="matrix(1 0 0 1 -40.5 10)" class="st3 st4 st6">Sample index</text>
	</g>
	<g>
		<line class="st2" x1="250" y1="863" x2="250" y2="768"/>
		<line class="st2" x1="250" y1="863" x2="264.9" y2="863"/>
		<line class="st2" x1="250" y1="839.2" x2="264.9" y2="839.2"/>
		<line class="st2" x1="250" y1="815.5" x2="264.9" y2="815.5"/>
		<line class="st2" x1="250" y1="791.8" x2="264.9" y2="791.8"/>
		<line class="st2" x1="250" y1="768" x2="264.9" y2="768"/>
	</g>
	<g transform="translate(247.0667,863)">
		<text transform="matrix(1 0 0 1 -7 3)" class="st3 st4 st5">0</text>
	</g>
	<g transform="translate(247.0667,839.25)">
		<text transform="matrix(1 0 0 1 -7 3)" class="st3 st4 st5">1</text>
	</g>
	<g transform="translate(247.0667,815.5)">
		<text transform="matrix(1 0 0 1 -7 3)" class="st3 st4 st5">2</text>
	</g>
	<g transform="translate(247.0667,791.75)">
		<text transform="matrix(1 0 0 1 -7 3)" class="st3 st4 st5">3</text>
	</g>
	<g transform="translate(247.0667,768)">
		<text transform="matrix(1 0 0 1 -7 3)" class="st3 st4 st5">4</text>
	</g>
	<g transform="translate(238.0667,815.4999) rotate(-90)">
		<text transform="matrix(1 0 0 1 -31.4993 -3)" class="st3 st4 st6">Magnitude</text>
	</g>
	<g transform="translate(994.0009,765.6625)">
		<text transform="matrix(1 0 0 1 -70.5 -3)" class="st12 st6">HPF &amp; BPF + Markers</text>
	</g>
	<g>
		<path class="st16" d="M259.3,852.5l9.3-9.4l9.3,13.6l9.3,0l9.3,4.7l9.3,1l9.3-1.8l9.3-2.1l9.3,2.9l9.3-0.6l9.3,1.4l9.3-0.4
			l9.3,0.6l9.3-1.3l9.3,0.3l9.3,0.3l9.3,0.4l9.3,0.8l9.3-0.1l9.3-0.1l9.3,0.2l9.3-0.3l9.3-0.1l9.3-0.1l9.3-1.2l9.3-35.7l9.3-26.2
			l9.3,27.7l9.3-16.1l9.3,31.2l9.3-40.3l9.3,8.8l9.3,23.4l9.3-47.4l9.3,46.6l9.3-21.6l9.3-16.4l9.3,42l9.3-1.3l9.3,16.3l9.3,4.1
			l9.3,4.8l9.3-0.4l9.3,1.5l9.3,0.1l9.3,0.5l9.3-0.6l9.3,0.6l9.3-2.6l9.3,2.3l9.3-5.6l9.3,3l9.3,2.5l9.3-1l9.3-2.5l9.3-7.3l9.3,4.9
			l9.3-7l9.3,11.9l9.3,0.2l9.3-2.9l9.3,2.6l9.3-0.3l9.3,1l9.3-0.5l9.3-4.8l9.3-2.2l9.3,6.2l9.3-3.7l9.3,4l9.3-0.3l9.3,0.6l9.3-2
			l9.3,3.2l9.3-0.6l9.3-1.3l9.3-4.8l9.3,2.2l9.3,0.7l9.3-1.2l9.3-0.9l9.3,5.3l9.3-3.6l9.3,1.6l9.3-2.6l9.3,2.8l9.3,1.2l9.3-1.1
			l9.3,0l9.3,0.8l9.3,0.5l9.3,0.2l9.3,1l9.3-0.2l9.3,0.7l9.3-0.1l9.3,0l9.3-0.3l9.3-0.6l9.3,1l9.3-0.3l9.3,0.1l9.3-0.2l9.3,0
			l9.3,0.4l9.3-7.9l9.3-27.8l9.3,15.8l9.3-30.5l9.3,40.8l9.3-61.1l9.3,42.2l9.3-27l9.3-13l9.3,55.9l9.3-40.6l9.3,32l9.3-41.5
			l9.3,5.5l9.3,23.8l9.3-39.7l9.3,32l9.3,5.5l9.3-22.8l9.3,41.9l9.3-45.4l9.3,23l9.3-1.3l9.3-21.6l9.3,55.8l9.3-56.9l9.3,5.1l9.3,35
			l9.3-52.6l9.3,43.2l9.3,4.3l9.3,20l9.3-2.3l9.3,8.5l9.3-0.1l9.3,1.5l9.3-1.2l9.3-0.8l9.3,1.9l9.3-0.4l9.3-0.8l9.3,1.1l9.3-2
			l9.3-5.8l9.3-3l9.3,10.7l9.3-1l9.3-0.5l9.3,2l9.3-0.7l9.3,0.4l9.3-0.2"/>
		<path class="st13" d="M259.3,841.6l9.3-0.4l9.3,8.2l9.3,6.7l9.3,2.8l9.3-0.4l9.3-0.9l9.3-3.5l9.3,2.2l9.3-0.2l9.3,1.7l9.3,1.2
			l9.3,1.5l9.3-0.8l9.3,0.8l9.3-0.5l9.3,0.9l9.3,0.4l9.3,0.9l9.3-0.1l9.3,0.8l9.3-0.9l9.3,0.8l9.3-1.2l9.3-3.1l9.3-67.3l9.3-4.7
			l9.3,40.9l9.3-22.8l9.3,17.8l9.3-26.1l9.3,43.5l9.3-42l9.3-10l9.3,43.5l9.3-28.7l9.3,3.4l9.3,12.8l9.3,16.2l9.3,13.6l9.3,6.2
			l9.3,0.2l9.3-2.2l9.3,0.6l9.3,0.4l9.3,1.2l9.3,0.6l9.3,1.2l9.3-1l9.3,0.1l9.3,2.2l9.3-9.1l9.3-4.4l9.3,0.5l9.3,5.6l9.3-4.6
			l9.3-20.7l9.3,15.8l9.3,3.4l9.3,9l9.3,2.7l9.3-7.8l9.3-7l9.3-0.3l9.3,0.6l9.3,15.3l9.3-11.5l9.3-5.2l9.3,3.9l9.3,1.7l9.3,8.9
			l9.3,6.3l9.3-11l9.3-6l9.3-1.2l9.3-3.3l9.3,16l9.3-0.7l9.3-17l9.3,3.7l9.3,10.7l9.3,1.9l9.3-1.1l9.3,7.5l9.3-9.8l9.3-8.9l9.3-1.3
			l9.3,4.8l9.3,7.1l9.3,7.3l9.3,1.8l9.3-4.4l9.3-1.7l9.3-0.2l9.3,0.4l9.3,0.9l9.3,1l9.3,0.6l9.3,1.6l9.3,0.9l9.3,1.2l9.3-0.2
			l9.3,0.5l9.3,0.1l9.3,0l9.3-16.2l9.3-48.4l9.3,9.6l9.3,10.6l9.3-13.8l9.3-3.9l9.3,31.2l9.3-37.4l9.3,15.2l9.3,23.7l9.3-36.8
			l9.3,10.8l9.3-1.2l9.3,17.9l9.3-17.5l9.3-24.4l9.3,64.7l9.3-27.1l9.3-12.1l9.3,12.5l9.3-24.7l9.3,43.4l9.3-28.1l9.3-0.1l9.3,11.2
			l9.3-27.8l9.3,39.4l9.3-27.5l9.3-20.8l9.3,33.6l9.3,21.3l9.3,7.8l9.3,10.1l9.3,0.3l9.3-3.6l9.3-1.6l9.3,0.1l9.3,0.6l9.3,1l9.3,0.6
			l9.3,1.1l9.3,1l9.3,0l9.3-11.8l9.3,16.2l9.3-1l9.3-0.9l9.3,0.9l9.3,1.1l9.3,0.4l9.3-1.5l9.3,1.6"/>
		<path class="st18" d="M498.1,796.1v6h6v-6H498.1z"/>
		<path class="st18" d="M535.3,798.6v6h6v-6H535.3z"/>
		<path class="st18" d="M591.1,792v6h6v-6H591.1z"/>
		<path class="st18" d="M1242.1,824.1v6h6v-6H1242.1z"/>
		<path class="st18" d="M1279.3,789.1v6h6v-6H1279.3z"/>
		<path class="st18" d="M1325.8,806.6v6h6v-6H1325.8z"/>
		<path class="st18" d="M1372.3,786.7v6h6v-6H1372.3z"/>
		<path class="st18" d="M1418.8,797.8v6h6v-6H1418.8z"/>
		<path class="st18" d="M1465.3,796.8v6h6v-6H1465.3z"/>
		<path class="st19" d="M321.4,851.1v6h6v-6H321.4z"/>
		<path class="st19" d="M702.7,852.7v6h6v-6H702.7z"/>
		<path class="st19" d="M777.1,822.3v6h6v-6H777.1z"/>
		<path class="st19" d="M879.4,837.5v6h6v-6H879.4z"/>
		<path class="st19" d="M953.8,836.7v6h6v-6H953.8z"/>
		<path class="st19" d="M1056.1,837.7v6h6v-6H1056.1z"/>
		<path class="st19" d="M1632.7,841.9v6h6v-6H1632.7z"/>
	</g>
	<g>
		<path class="st1" d="M1727,828v-53h-134v53H1727z"/>
	</g>
	<g transform="translate(1640,782.9252)">
		<text transform="matrix(1 0 0 1 -5.1263 3)" class="st4 st10">HPF Magnitude</text>
	</g>
	<g>
		<line class="st16" x1="1591.9" y1="782.9" x2="1631.9" y2="782.9"/>
	</g>
	<g transform="translate(1640,795.3084)">
		<text transform="matrix(1 0 0 1 -5.1263 3)" class="st4 st10">BPF Magnitude</text>
	</g>
	<g>
		<line class="st13" x1="1591.9" y1="795.3" x2="1631.9" y2="795.3"/>
	</g>
	<g transform="translate(1640,807.6916)">
		<text transform="matrix(1 0 0 1 -5.1263 3)" class="st4 st10">HPF Run Marker</text>
	</g>
	<g transform="translate(1617,807.6916)">
		<path class="st18" d="M-8.1-3v6h6v-6H-8.1z"/>
	</g>
	<g transform="translate(1640,820.0748)">
		<text transform="matrix(1 0 0 1 -5.1263 3)" class="st4 st10">BPF Walk Marker</text>
	</g>
	<g transform="translate(1617,820.0748)">
		<path class="st19" d="M-8.1-3v6h6v-6H-8.1z"/>
		<path class="st11" d="M-29.1,7.9v-53H110v53H-29.1z"/>
	</g>
</g>
</svg>
